<?xml version="1.0" encoding="UTF-8" standalone="no"?>
<svg
   xmlns:sketch="http://www.bohemiancoding.com/sketch/ns"
   xmlns:dc="http://purl.org/dc/elements/1.1/"
   xmlns:cc="http://creativecommons.org/ns#"
   xmlns:rdf="http://www.w3.org/1999/02/22-rdf-syntax-ns#"
   xmlns:svg="http://www.w3.org/2000/svg"
   xmlns="http://www.w3.org/2000/svg"
   id="svg8"
   version="1.1"
   viewBox="0 0 54 54"
   height="54mm"
   width="54mm">
  <defs
     id="defs2" />
  <metadata
     id="metadata5">
    <rdf:RDF>
      <cc:Work
         rdf:about="">
        <dc:format>image/svg+xml</dc:format>
        <dc:type
           rdf:resource="http://purl.org/dc/dcmitype/StillImage" />
        <dc:title></dc:title>
      </cc:Work>
    </rdf:RDF>
  </metadata>
  <g
     transform="translate(0,-243)"
     id="layer1">
    <path
       style="fill:none;fill-rule:evenodd;stroke:none;stroke-width:0.26458332"
       id="Shape-3"
       sketch:type="MSShapeGroup"
       d="" />
    <path
       d="m 13.400747,276.07839 -11.9252717,-8.21906 2.1112323,11.98632 9.2947984,-1.63716 c 0.03298,-0.74549 0.213817,-1.48093 0.519241,-2.1301 z"
       id="Shape-13"
       sketch:type="MSShapeGroup"
       style="fill:#00a9e0;fill-rule:evenodd;stroke:none;stroke-width:0.26458332" />
    <path
       d="m 13.530926,282.56607 -8.4777772,4.30227 c 1.7002162,2.87197 4.2511738,4.94883 7.1846972,6.14513 l 2.945731,-8.98465 c -0.622965,-0.39045 -1.20602,-0.8617 -1.652651,-1.46275 z"
       id="Shape-14"
       sketch:type="MSShapeGroup"
       style="fill:#00a9e0;fill-rule:evenodd;stroke:none;stroke-width:0.26458332" />
    <path
       d="m 43.902065,253.70936 c -1.632557,-2.66943 -4.117044,-4.85039 -7.240846,-6.07888 l -2.841912,9.03444 c 0.677959,0.36455 1.232162,0.82256 1.651782,1.40842 z"
       id="Shape-15"
       sketch:type="MSShapeGroup"
       style="fill:#00a9e0;fill-rule:evenodd;stroke:none;stroke-width:0.26458332" />
    <path
       d="m 41.051718,273.11326 8.385746,4.13587 c 1.109344,-2.83488 1.342754,-5.98996 0.534836,-9.12757 l -8.795859,2.99886 c 0.05585,0.71233 0.03279,1.3578 -0.124723,1.99284 z"
       id="Shape-16"
       sketch:type="MSShapeGroup"
       style="fill:#00a9e0;fill-rule:evenodd;stroke:none;stroke-width:0.26458332" />
    <path
       d="m 40.257148,265.22445 9.459562,-0.46292 c -0.379006,-3.31591 -1.859306,-6.25349 -4.048433,-8.54358 l -6.358296,6.99811 c 0.427198,0.60994 0.749807,1.29709 0.947167,2.00839 z"
       id="Shape-17"
       sketch:type="MSShapeGroup"
       style="fill:#00a9e0;fill-rule:evenodd;stroke:none;stroke-width:0.26458332" />
    <path
       d="m 15.417531,294.40919 c 2.826434,1.34252 6.099123,1.81027 9.386346,1.13094 l -2.559994,-9.11832 c -0.766977,0.0654 -1.481415,-0.015 -2.153083,-0.27618 z"
       id="Shape-18"
       sketch:type="MSShapeGroup"
       style="fill:#00a9e0;fill-rule:evenodd;stroke:none;stroke-width:0.26458332" />
    <path
       d="m 28.184548,286.13021 -0.522959,9.45643 c 3.355324,-0.0312 6.449852,-1.21517 8.918148,-3.13834 l -6.281235,-7.05035 c -0.671009,0.39651 -1.369006,0.62892 -2.113954,0.73226 z"
       id="Shape-19"
       sketch:type="MSShapeGroup"
       style="fill:#00a9e0;fill-rule:evenodd;stroke:none;stroke-width:0.26458332" />
    <path
       d="m 4.8011586,261.06661 c 2.9360514,2.04983 12.1668354,8.52534 13.7108254,9.61878 0.512147,-0.41675 1.048199,-0.80132 1.715359,-1.06338 L 17.572161,254.43473 1.9285519,244.84484 c 0.00309,0.0176 2.8078483,15.85136 2.8726095,16.22178 z"
       id="Shape-20"
       sketch:type="MSShapeGroup"
       style="fill:#00a9e0;fill-rule:evenodd;stroke:none;stroke-width:0.26458332" />
    <g
       transform="translate(-5.8539795,24.484218)"
       id="g4894">
      <path
         transform="matrix(1.4941877,0,0,1.4941877,-14.939121,-130.95228)"
         d="m 29.041016,242.53516 c -2.000173,0.21222 -3.942426,1.06505 -5.375,2.48632 -1.53872,1.52658 -1.932247,2.11041 -2.587891,3.84766 -0.75503,2.0006 -0.759066,3.65336 -0.0293,5.97461 0.784839,2.49632 3.000647,4.83778 5.457031,5.76758 2.83153,1.0718 6.512377,0.7202 8.580079,-0.90625 l 0.410156,-0.32422 0.673828,0.67187 c 0.451627,0.45183 0.636708,0.70334 0.642578,0.72266 0.0029,0.01 0.01065,-0.023 -0.01172,0.0312 -0.02237,0.0542 -0.09091,0.16777 -0.197265,0.33008 -0.197971,0.30215 -0.345506,0.4808 -0.363282,0.79687 -0.0089,0.15804 0.06175,0.34475 0.158204,0.45508 0.09645,0.11033 0.196292,0.1696 0.296874,0.22656 0.0511,0.029 0.256686,0.17508 0.480469,0.35352 0.223784,0.17844 0.484638,0.39691 0.720703,0.60937 0.500759,0.45071 1.428952,1.22355 2.09375,1.74024 1.244126,0.96697 1.886567,1.49704 3.25586,2.69141 0.519703,0.4533 0.868713,0.75254 1.341797,0.78711 0.236541,0.0173 0.477459,-0.0744 0.652343,-0.2129 0.174884,-0.13846 0.307506,-0.31134 0.447266,-0.51953 0.199502,-0.29718 0.605986,-0.80661 0.853516,-1.07226 0.492483,-0.52856 1.048117,-1.21722 1.490234,-1.81641 0.221058,-0.29959 0.412688,-0.57427 0.554688,-0.80273 0.071,-0.11423 0.129494,-0.21555 0.175781,-0.31055 0.04629,-0.095 0.09766,-0.15159 0.09766,-0.3457 0,-0.17604 -0.04992,-0.22749 -0.08594,-0.28907 -0.03602,-0.0616 -0.07686,-0.11552 -0.123047,-0.17382 -0.09238,-0.1166 -0.211149,-0.24739 -0.355469,-0.39453 -0.28864,-0.29429 -0.675999,-0.65086 -1.103516,-1.00977 -0.417703,-0.35068 -0.81255,-0.68484 -1.111328,-0.93945 -0.149389,-0.12731 -0.27559,-0.23503 -0.367187,-0.31446 -0.0916,-0.0794 -0.168753,-0.15134 -0.148438,-0.13086 -0.08162,-0.0823 -0.120082,-0.10597 -0.238281,-0.20312 -0.118199,-0.0971 -0.278437,-0.22782 -0.470703,-0.38281 -0.384533,-0.30998 -0.896868,-0.71923 -1.44336,-1.15235 -0.54232,-0.42981 -1.055143,-0.84986 -1.443359,-1.17968 -0.194108,-0.16492 -0.357888,-0.30751 -0.474609,-0.41407 -0.116722,-0.10655 -0.212929,-0.22803 -0.164063,-0.15625 -0.15224,-0.22363 -0.495005,-0.3027 -0.716797,-0.24218 -0.221791,0.0605 -0.398665,0.18578 -0.583984,0.35351 -0.299165,0.27074 -0.445361,0.32018 -0.482422,0.31836 -0.03706,-0.002 -0.177118,-0.0648 -0.447266,-0.36328 -0.201044,-0.22215 -0.231088,-0.23605 -0.246093,-0.55274 -0.01501,-0.31669 0.05367,-0.91839 0.210937,-2.01562 0.416025,-2.90244 0.259554,-4.98075 -0.570312,-6.60742 -0.897585,-1.75941 -3.019356,-3.75779 -4.892579,-4.625 -0.807758,-0.37397 -1.67313,-0.60406 -2.55664,-0.70313 -0.662874,-0.0743 -1.337182,-0.0746 -2.003906,-0.004 z m 0.416015,2.28906 c 2.797214,-0.2008 4.442593,0.56223 6.365235,2.96875 0.678173,0.84885 1.100811,2.07865 1.277343,3.88867 0.133564,1.36953 0.08949,1.60422 -0.544921,2.94531 -0.881765,1.8639 -2.568578,3.49709 -4.027344,3.99414 -1.259567,0.42918 -3.888797,0.46496 -5.115235,0.0742 -0.515068,-0.16408 -1.478817,-0.88898 -2.302734,-1.75586 -0.823917,-0.86687 -1.547235,-1.89642 -1.769531,-2.54883 -0.8726,-2.56093 -0.375235,-5.15201 1.376953,-7.19921 1.356438,-1.58483 2.615412,-2.21466 4.740234,-2.36719 z m 8.306641,12.94336 c 0.06704,-0.001 0.167927,0.0386 0.414062,0.31054 0.242965,0.26847 0.312522,0.46232 0.308594,0.60547 -0.0039,0.14316 -0.07625,0.30899 -0.326172,0.53516 -0.14707,0.1331 -0.247166,0.22307 -0.300781,0.26172 0.04238,-0.001 -0.160621,-0.11346 -0.582031,-0.48438 -0.217871,-0.19176 -0.37741,-0.33623 -0.464844,-0.43359 -0.08743,-0.0974 -0.08033,-0.12995 -0.07617,-0.084 0.0042,0.046 -0.02929,0.0741 0.02734,0.008 0.05663,-0.0663 0.185729,-0.18326 0.371094,-0.33789 0.355037,-0.29619 0.562797,-0.37961 0.628906,-0.38086 z m 2.945312,1.10351 c -0.147852,0.0913 -0.110559,0.0246 -0.01563,0.0606 0.09493,0.0359 0.232262,0.11354 0.353516,0.21484 a 0.41281384,0.41281384 0 0 0 0.002,0 c 1.155597,0.96541 1.573686,1.30998 3.652344,2.99024 0.578057,0.46727 1.107793,0.92719 1.486328,1.2832 0.189267,0.17801 0.340749,0.33137 0.4375,0.43946 0.0097,0.0108 0.01101,0.0136 0.01953,0.0234 -0.05281,0.0928 -0.133576,0.21959 -0.236328,0.36914 -0.212878,0.30984 -0.50847,0.70368 -0.8125,1.08594 -0.30403,0.38226 -0.618411,0.75514 -0.865234,1.02344 -0.09573,0.10405 -0.166848,0.17375 -0.234375,0.23828 -0.01975,-0.0141 -0.02854,-0.019 -0.05078,-0.0352 -0.171695,-0.12472 -0.416029,-0.3109 -0.710937,-0.53906 -0.589817,-0.45632 -1.385618,-1.08723 -2.238281,-1.78125 -0.850613,-0.69235 -1.623605,-1.34948 -2.179688,-1.84766 -0.278041,-0.24908 -0.502698,-0.46077 -0.65039,-0.60937 -0.02954,-0.0297 -0.03952,-0.042 -0.0625,-0.0664 0.04664,-0.0848 0.107244,-0.18921 0.189453,-0.31836 0.184635,-0.29005 0.439346,-0.66179 0.707031,-1.03125 0.267685,-0.36945 0.548933,-0.7363 0.78125,-1.02148 0.116158,-0.14259 0.221392,-0.2658 0.302734,-0.35352 0.08134,-0.0877 0.160285,-0.1468 0.125,-0.125 z"
         id="path4912"
         style="fill:#000000;fill-opacity:1;stroke-width:0.26458335" />
    </g>
  </g>
</svg>
