<?xml version="1.0" encoding="UTF-8" standalone="no"?>
<!-- Created with Inkscape (http://www.inkscape.org/) -->

<svg
   xmlns:dc="http://purl.org/dc/elements/1.1/"
   xmlns:cc="http://creativecommons.org/ns#"
   xmlns:rdf="http://www.w3.org/1999/02/22-rdf-syntax-ns#"
   xmlns:svg="http://www.w3.org/2000/svg"
   xmlns="http://www.w3.org/2000/svg"
   xmlns:sodipodi="http://sodipodi.sourceforge.net/DTD/sodipodi-0.dtd"
   xmlns:inkscape="http://www.inkscape.org/namespaces/inkscape"
   width="54mm"
   height="54mm"
   viewBox="0 0 54 54"
   version="1.1"
   id="svg8"
   inkscape:version="0.92.4 5da689c313, 2019-01-14"
   sodipodi:docname="favicon.svg"
   inkscape:export-filename="/home/schiessl/Projekte/Metaverse/open-explorer/app/favicon.png"
   inkscape:export-xdpi="120.41"
   inkscape:export-ydpi="120.41">
  <defs
     id="defs2" />
  <sodipodi:namedview
     id="base"
     pagecolor="#ffffff"
     bordercolor="#666666"
     borderopacity="1.0"
     inkscape:pageopacity="0.0"
     inkscape:pageshadow="2"
     inkscape:zoom="1.979899"
     inkscape:cx="156.92705"
     inkscape:cy="130.52343"
     inkscape:document-units="mm"
     inkscape:current-layer="layer1"
     showgrid="false"
     inkscape:window-width="2560"
     inkscape:window-height="1023"
     inkscape:window-x="0"
     inkscape:window-y="0"
     inkscape:window-maximized="1" />
  <metadata
     id="metadata5">
    <rdf:RDF>
      <cc:Work
         rdf:about="">
        <dc:format>image/svg+xml</dc:format>
        <dc:type
           rdf:resource="http://purl.org/dc/dcmitype/StillImage" />
        <dc:title></dc:title>
      </cc:Work>
    </rdf:RDF>
  </metadata>
  <g
     inkscape:label="Layer 1"
     inkscape:groupmode="layer"
     id="layer1"
     transform="translate(0,-243)">
    <path
       style="fill:#9e9e9f;stroke-width:0.75507557"
       d="m -19.550374,291.43715 c -0.646485,-0.92298 -1.175428,-2.28212 -1.175428,-3.0203 0,-1.80227 2.658755,-4.36244 4.530454,-4.36244 2.049173,0 4.530453,2.62395 4.530453,4.79098 0,3.93952 -5.642507,5.79408 -7.885479,2.59176 z"
       id="path4651"
       inkscape:connector-curvature="0" />
    <path
       style="fill:#9e9e9f;stroke-width:0.75507557"
       d="m -3.2080474,292.20923 c -1.164705,-1.1647 -1.164705,-3.81879 0,-4.9835 1.483467,-1.48345 4.9794046,-1.09661 5.9166876,0.6547 1.7611445,3.29071 -3.2722216,6.97327 -5.9166876,4.3288 z"
       id="path4649"
       inkscape:connector-curvature="0" />
    <path
       style="fill:#9e9e9f;stroke-width:0.75507557"
       d="m 58.647971,290.389 c -0.54435,-0.65589 -0.72902,-1.93096 -0.44409,-3.06622 0.41542,-1.65513 0.8479,-1.90857 2.91585,-1.70869 2.04957,0.19805 2.46695,0.57502 2.67733,2.41796 0.36737,3.21827 -3.11235,4.81108 -5.14909,2.35695 z"
       id="path4647"
       inkscape:connector-curvature="0" />
    <path
       style="fill:#9e9e9f;stroke-width:0.75507557"
       d="m 70.274071,289.62411 c -1.14577,-1.74865 -1.14577,-2.0267 0,-3.77535 2.17618,-3.32129 7.242654,-2.19696 7.242654,1.60721 0,3.97959 -5.062734,5.49514 -7.242654,2.16814 z"
       id="path4645"
       inkscape:connector-curvature="0" />
    <path
       style="fill:#9e9e9f;stroke-width:0.75507557"
       d="m 48.098851,289.66036 c -1.35761,-1.63581 -0.25071,-4.18914 1.81604,-4.18914 2.49116,0 3.76633,1.75365 2.71017,3.7271 -0.96916,1.8109 -3.21639,2.04029 -4.52621,0.46204 z"
       id="path4643"
       inkscape:connector-curvature="0" />
    <path
       style="fill:#9e9e9f;stroke-width:0.75507557"
       d="m 7.0599072,289.35765 c -0.5683181,-0.36929 -0.8961131,-1.6004 -0.7550791,-2.83588 0.210812,-1.84674 0.5857371,-2.18328 2.4321667,-2.18328 2.6914632,0 4.2362052,2.02658 3.0216212,3.96413 -0.944875,1.50731 -3.2173472,2.01755 -4.6987088,1.05503 z"
       id="path4641"
       inkscape:connector-curvature="0" />
    <path
       style="fill:#9e9e9f;stroke-width:0.75507557"
       d="m 41.111638,286.15607 c -0.677677,-1.76598 0.279077,-3.39783 1.992171,-3.39783 1.921077,0 2.756805,1.89571 1.502169,3.40744 -1.198999,1.44472 -2.938096,1.43994 -3.49434,-0.008 z"
       id="path4639"
       inkscape:connector-curvature="0" />
    <path
       style="fill:#9e9e9f;stroke-width:0.75507557"
       d="m 13.440206,283.8522 c -0.679057,-0.8182 -0.689246,-1.478 -0.04149,-2.68831 0.962243,-1.79796 2.84488,-1.75876 4.004836,0.0834 1.746787,2.77415 -1.857072,5.14277 -3.963326,2.60488 z"
       id="path4637"
       inkscape:connector-curvature="0" />
    <path
       style="fill:#9e9e9f;stroke-width:0.75507557"
       d="m 36.282925,283.3365 c -1.560131,-0.57842 -1.131405,-3.24439 0.521741,-3.24439 0.806076,0 1.695742,0.3724 1.977038,0.82753 0.648853,1.04986 -1.245046,2.88168 -2.498779,2.41686 z"
       id="path4635"
       inkscape:connector-curvature="0" />
    <path
       style="fill:#9e9e9f;stroke-width:0.75507557"
       d="m 19.466885,279.68319 c -1.167662,-1.40693 -0.250738,-3.49354 1.535205,-3.49354 1.832088,0 2.623785,1.9301 1.397688,3.40748 -1.15705,1.39415 -1.830877,1.41393 -2.932893,0.0863 z"
       id="path4633"
       inkscape:connector-curvature="0" />
    <path
       style="fill:#9e9e9f;stroke-width:0.75507557"
       d="m 30.374118,277.36242 c 0,-0.77766 0.494877,-1.14802 1.321382,-0.98884 1.591578,0.3065 1.491221,1.64658 -0.148888,1.98807 -0.684083,0.14235 -1.172497,-0.27369 -1.172499,-0.99923 z"
       id="path4631"
       inkscape:connector-curvature="0" />
    <path
       style="fill:#9e9e9f;stroke-width:0.75507557"
       d="m 24.288933,273.88561 c -0.480126,-1.2512 1.22567,-2.29958 2.480114,-1.52428 0.998675,0.61719 0.179619,2.68548 -1.063477,2.68548 -0.534075,0 -1.171562,-0.52254 -1.416637,-1.1612 z"
       id="path4619"
       inkscape:connector-curvature="0" />
    <path
       style="fill:#9e9e9f;stroke-width:0.75507557"
       d="m 30.014433,265.7523 c -1.295144,-0.52261 -1.184583,-2.13553 0.226681,-3.30673 0.965575,-0.80137 1.383865,-0.75811 2.389135,0.24713 1.005263,1.00526 1.048536,1.42358 0.247169,2.38915 -1.016382,1.22466 -1.315733,1.29474 -2.862981,0.67042 z"
       id="path4617"
       inkscape:connector-curvature="0" />
    <path
       style="fill:#9e9e9f;stroke-width:0.75507557"
       d="m 18.83979,267.52808 c 0,-1.13724 0.394262,-1.54494 1.321383,-1.3664 0.726758,0.14016 1.321381,0.75483 1.321381,1.3664 0,0.61158 -0.594623,1.22643 -1.321381,1.36643 -0.927121,0.17863 -1.321383,-0.22918 -1.321383,-1.36643 z"
       id="path4615"
       inkscape:connector-curvature="0" />
    <path
       style="fill:#9e9e9f;stroke-width:0.75507557"
       d="m 34.26844,258.81846 c -0.598171,-1.5588 0.212867,-3.39784 1.498479,-3.39784 1.511556,0 3.008137,2.0368 2.489552,3.38822 -0.566081,1.47516 -3.423001,1.48207 -3.988031,0.008 z"
       id="path4613"
       inkscape:connector-curvature="0" />
    <path
       style="fill:#9e9e9f;stroke-width:0.75507557"
       d="m 14.197844,264.67257 c -0.967337,-0.96733 -0.492622,-3.11455 0.798077,-3.60983 1.754189,-0.67316 3.550493,1.68339 2.368665,3.10742 -0.899078,1.08331 -2.354868,1.31427 -3.166742,0.50241 z"
       id="path4611"
       inkscape:connector-curvature="0" />
    <path
       style="fill:#9e9e9f;stroke-width:0.75507557"
       d="m 39.705822,253.87989 c -2.220973,-2.22097 -0.732378,-5.60914 2.464378,-5.60914 2.490419,0 3.899829,1.228 3.899829,3.39786 0,3.23055 -3.966682,4.60882 -6.364207,2.21128 z"
       id="path4609"
       inkscape:connector-curvature="0" />
    <path
       style="fill:#9e9e9f;stroke-width:0.75507557"
       d="m 7.7940545,260.24461 c -0.830586,-0.83061 -1.510153,-1.82568 -1.510153,-2.21129 0,-1.16384 2.285776,-3.07425 3.678296,-3.07425 2.9222075,0 4.1047265,3.43525 1.9308365,5.60914 -1.554296,1.55427 -2.2782355,1.49715 -4.0989795,-0.3236 z"
       id="path4607"
       inkscape:connector-curvature="0" />
    <path
       style="fill:#9e9e9f;stroke-width:0.75507557"
       d="m 82.166901,249.8316 c -3.41363,-1.22001 -4.11321,-6.27581 -1.13812,-8.22519 3.71035,-2.43111 8.014814,0.78472 6.915124,5.16624 -0.34973,1.39341 -3.537564,3.8943 -4.491154,3.52336 -0.0843,-0.0328 -0.66292,-0.24172 -1.28585,-0.46441 z"
       id="path4605"
       inkscape:connector-curvature="0" />
    <path
       style="fill:#9e9e9f;stroke-width:0.75507557"
       d="m -30.033307,256.63871 c -1.650367,-1.82363 -1.588121,-4.87449 0.131199,-6.43041 2.993431,-2.70903 7.680069,-0.62691 7.680069,3.412 0,3.86696 -5.218433,5.88345 -7.811265,3.01841 z"
       id="path4603"
       inkscape:connector-curvature="0" />
    <path
       style="fill:#9e9e9f;stroke-width:0.75507557"
       d="m 47.838494,248.12096 c -2.71634,-3.00151 0.613807,-7.49723 4.502913,-6.07897 0.830586,0.30292 1.826969,1.43768 2.214179,2.52171 1.415299,3.96219 -3.834554,6.74243 -6.717092,3.55726 z"
       id="path4601"
       inkscape:connector-curvature="0" />
    <path
       style="fill:#9e9e9f;stroke-width:0.75507557"
       d="m -2.1586013,256.07807 c -1.597582,-1.59759 -1.494949,-3.58583 0.2674334,-5.18076 1.91165503,-1.73002 3.889376,-1.27237 5.2907118,1.22428 1.0349709,1.84395 1.0106399,2.15528 -0.279847,3.58126 -1.6854238,1.86238 -3.65137377,2.00213 -5.2782932,0.37522 z"
       id="path4599"
       inkscape:connector-curvature="0" />
    <path
       style="fill:#9e9e9f;stroke-width:0.75507557"
       d="m -16.50504,255.32298 c -3.569248,-3.56923 1.087173,-8.78429 5.658772,-6.33764 1.6741683,0.89599 2.0299223,5.14259 0.554422,6.61811 -1.282893,1.28289 -4.809011,1.12372 -6.213194,-0.28052 z"
       id="path4597"
       inkscape:connector-curvature="0" />
    <path
       style="fill:#9e9e9f;stroke-width:0.75507557"
       d="m 63.029501,246.70964 c -0.68731,-0.75947 -1.24965,-2.09934 -1.24965,-2.97749 0,-1.71871 2.5867,-3.9475 4.58144,-3.9475 1.66287,0 3.7244,2.40626 3.7244,4.3472 0,3.56743 -4.62989,5.25883 -7.05619,2.57779 z"
       id="path4547"
       inkscape:connector-curvature="0" />
    <path
       style="fill:#f4973b;stroke-width:0.75507557"
       d="m -18.320603,292.59901 c -0.545953,-0.21833 -1.319493,-1.25684 -1.71898,-2.30756 -1.681553,-4.42281 4.483963,-7.68042 7.199258,-3.80381 1.553473,2.21791 1.482688,3.30012 -0.334721,5.11755 -1.4739,1.47389 -3.140784,1.79582 -5.145557,0.99382 z"
       id="path4709"
       inkscape:connector-curvature="0" />
    <path
       style="fill:#f4973b;stroke-width:0.75507557"
       d="m -2.9325544,291.6593 c -1.702494,-1.88125 -0.934368,-4.42835 1.521312,-5.04469 1.036835,-0.26027 2.3397326,-0.0548 2.9699776,0.46825 1.587818,1.31775 1.394489,4.32378 -0.337705,5.25082 -2.0369896,1.09016 -2.6461926,0.99125 -4.1535846,-0.67438 z"
       id="path4707"
       inkscape:connector-curvature="0" />
    <path
       style="fill:#f4973b;stroke-width:0.75507557"
       d="m 59.033591,290.2874 c -1.47172,-1.47169 -1.25085,-3.21986 0.55008,-4.354 2.61627,-1.64759 5.56234,2.06506 3.55651,4.48195 -1.18854,1.43211 -2.59023,1.38844 -4.10659,-0.12786 z"
       id="path4705"
       inkscape:connector-curvature="0" />
    <path
       style="fill:#f4973b;stroke-width:0.75507557"
       d="m 71.111521,290.28456 c -1.47836,-1.47837 -1.23195,-4.74804 0.43649,-5.79196 1.94173,-1.21491 5.127484,-0.005 5.669174,2.1534 0.92688,3.693 -3.445544,6.29866 -6.105664,3.63856 z"
       id="path4703"
       inkscape:connector-curvature="0" />
    <path
       style="fill:#f4973b;stroke-width:0.75507557"
       d="m 48.466541,289.53676 c -0.67114,-0.67115 -1.09992,-1.58128 -0.95284,-2.02253 0.44355,-1.33063 2.53557,-2.31358 3.85028,-1.80908 1.58063,0.60655 1.61075,3.99111 0.0408,4.59352 -1.60114,0.61444 -1.54826,0.62814 -2.93832,-0.76191 z"
       id="path4701"
       inkscape:connector-curvature="0" />
    <path
       style="fill:#f4973b;stroke-width:0.75507557"
       d="m 7.0826142,289.09581 c -1.8965761,-1.89659 -0.4848261,-5.13451 2.2386606,-5.13451 0.7329152,0 1.6843102,0.65723 2.1142132,1.46049 1.010889,1.88886 0.998847,1.98981 -0.404906,3.39355 -1.4187972,1.41881 -2.7173772,1.51104 -3.9479678,0.28054 z"
       id="path4699"
       inkscape:connector-curvature="0" />
    <path
       style="fill:#f4973b;stroke-width:0.75507557"
       d="m 41.111638,286.15641 c -0.598169,-1.55879 0.212869,-3.39782 1.498479,-3.39782 0.585124,0 1.486851,0.50965 2.003845,1.1326 0.749931,0.90363 0.749931,1.36162 0,2.26522 -0.516994,0.62296 -1.418721,1.13263 -2.003845,1.13263 -0.585121,0 -1.259436,-0.50967 -1.498479,-1.13263 z"
       id="path4697"
       inkscape:connector-curvature="0" />
    <path
       style="fill:#f4973b;stroke-width:0.75507557"
       d="m 13.935385,284.46503 c -0.935189,-0.93519 -0.576475,-3.88151 0.523986,-4.30383 1.56085,-0.59892 3.678086,1.25384 3.356856,2.93759 -0.278763,1.46119 -2.872693,2.37439 -3.880842,1.36624 z"
       id="path4695"
       inkscape:connector-curvature="0" />
    <path
       style="fill:#f4973b;stroke-width:0.75507557"
       d="m 35.339079,281.60228 c 0,-1.24314 0.391365,-1.55961 1.698921,-1.37392 0.934407,0.13275 1.698919,0.75098 1.698919,1.37392 0,0.62293 -0.764512,1.24119 -1.698919,1.37389 -1.307556,0.18578 -1.698921,-0.13073 -1.698921,-1.37389 z"
       id="path4693"
       inkscape:connector-curvature="0" />
    <path
       style="fill:#f4973b;stroke-width:0.75507557"
       d="m 19.150906,278.92755 c -0.551594,-1.43745 1.369362,-3.04427 2.925505,-2.44713 0.658918,0.25286 1.084505,1.05541 0.945745,1.78342 -0.316398,1.66002 -3.29309,2.17036 -3.87125,0.66371 z"
       id="path4691"
       inkscape:connector-curvature="0" />
    <path
       style="fill:#f4973b;stroke-width:0.75507557"
       d="m 30.538852,277.62339 c 0.391908,-1.17576 2.081178,-1.38164 2.140374,-0.26085 0.02197,0.41531 -0.526867,0.87247 -1.219575,1.01597 -0.787325,0.16324 -1.132507,-0.11995 -0.920799,-0.75507 z"
       id="path4689"
       inkscape:connector-curvature="0" />
    <path
       style="fill:#f4973b;stroke-width:0.75507557"
       d="m 25.055813,274.52291 c -0.902434,-0.90245 -0.48756,-2.4964 0.649757,-2.4964 0.622937,0 1.132613,0.48961 1.132613,1.08806 0,1.26145 -1.077702,2.113 -1.78237,1.40834 z"
       id="path4677"
       inkscape:connector-curvature="0" />
    <path
       style="fill:#f4973b;stroke-width:0.75507557"
       d="m 30.014433,265.7523 c -1.295144,-0.52261 -1.184583,-2.13553 0.226681,-3.30673 0.965575,-0.80137 1.383865,-0.75811 2.389135,0.24713 1.005263,1.00526 1.048536,1.42358 0.247169,2.38915 -1.016382,1.22466 -1.315733,1.29474 -2.862981,0.67042 z"
       id="path4675"
       inkscape:connector-curvature="0" />
    <path
       style="fill:#f4973b;stroke-width:0.75507557"
       d="m 18.83979,267.52808 c 0,-1.13724 0.394262,-1.54494 1.321383,-1.3664 0.726758,0.14016 1.321381,0.75483 1.321381,1.3664 0,0.61158 -0.594623,1.22643 -1.321381,1.36643 -0.927121,0.17863 -1.321383,-0.22918 -1.321383,-1.36643 z"
       id="path4673"
       inkscape:connector-curvature="0" />
    <path
       style="fill:#f4973b;stroke-width:0.75507557"
       d="m 34.26844,258.81846 c -0.598171,-1.5588 0.212867,-3.39784 1.498479,-3.39784 1.511556,0 3.008137,2.0368 2.489552,3.38822 -0.566081,1.47516 -3.423001,1.48207 -3.988031,0.008 z"
       id="path4671"
       inkscape:connector-curvature="0" />
    <path
       style="fill:#f4973b;stroke-width:0.75507557"
       d="m 14.223946,264.69867 c -0.976461,-0.97645 -0.542166,-3.13165 0.729387,-3.61961 1.591411,-0.61066 2.738694,0.49783 2.389875,2.3091 -0.277248,1.43967 -2.187534,2.24224 -3.119262,1.31051 z"
       id="path4669"
       inkscape:connector-curvature="0" />
    <path
       style="fill:#f4973b;stroke-width:0.75507557"
       d="m 39.778167,253.50744 c -1.474134,-2.10462 -0.742912,-4.39282 1.590966,-4.9786 2.376178,-0.59638 4.245653,0.50488 4.570088,2.69214 0.535778,3.61201 -4.042526,5.31108 -6.161054,2.28646 z"
       id="path4667"
       inkscape:connector-curvature="0" />
    <path
       style="fill:#f4973b;stroke-width:0.75507557"
       d="m 7.7940545,260.24461 c -0.830586,-0.83061 -1.510153,-1.82568 -1.510153,-2.21129 0,-1.16384 2.285776,-3.07425 3.678296,-3.07425 2.9222075,0 4.1047265,3.43525 1.9308365,5.60914 -1.554296,1.55427 -2.2782355,1.49715 -4.0989795,-0.3236 z"
       id="path4665"
       inkscape:connector-curvature="0" />
    <path
       style="fill:#f4973b;stroke-width:0.75507557"
       d="m -30.258111,256.07333 c -2.739437,-4.18091 1.908954,-8.82928 6.089865,-6.08986 1.330524,0.87178 1.946205,1.94927 1.946205,3.406 0,4.45931 -5.638808,6.34257 -8.03607,2.68386 z"
       id="path4663"
       inkscape:connector-curvature="0" />
    <path
       style="fill:#f4973b;stroke-width:0.75507557"
       d="m 47.790267,248.06752 c -1.099278,-1.21469 -1.237394,-1.95945 -0.665155,-3.58662 0.621231,-1.76645 1.139409,-2.05358 3.706146,-2.05358 2.566735,0 3.084913,0.28713 3.706145,2.05358 1.436722,4.08532 -3.784214,6.86061 -6.747136,3.58662 z"
       id="path4661"
       inkscape:connector-curvature="0" />
    <path
       style="fill:#f4973b;stroke-width:0.75507557"
       d="m 80.396231,248.21963 c -3.274,-3.61775 0.74796,-9.06554 5.029174,-6.81207 2.07237,1.0908 2.75587,2.10518 2.77054,4.11172 0.0263,3.57909 -5.327164,5.43249 -7.799714,2.70035 z"
       id="path4659"
       inkscape:connector-curvature="0" />
    <path
       style="fill:#f4973b;stroke-width:0.75507557"
       d="m -2.0955083,255.88364 c -1.755496,-1.9398 -1.555215,-3.66969 0.5874154,-5.07356 3.389168,-2.22068 6.8107238,1.26981 4.5808088,4.67309 -1.3969858,2.13206 -3.45670477,2.29168 -5.1682242,0.40047 z"
       id="path4657"
       inkscape:connector-curvature="0" />
    <path
       style="fill:#f4973b;stroke-width:0.75507557"
       d="m -16.441945,255.12856 c -1.639417,-1.81154 -1.586022,-4.12131 0.131199,-5.67537 2.927098,-2.64898 6.9249943,-0.73911 6.9249943,3.30819 0,3.54628 -4.5942833,5.08756 -7.0561903,2.36718 z"
       id="path4655"
       inkscape:connector-curvature="0" />
    <path
       style="fill:#f4973b;stroke-width:0.75507557"
       d="m 62.867251,246.23966 c -2.50408,-3.82171 1.49477,-7.90536 5.29982,-5.41219 2.27469,1.49043 2.51884,4.22043 0.53778,6.01327 -1.98144,1.79321 -4.4343,1.54065 -5.8376,-0.60108 z"
       id="path4545"
       inkscape:connector-curvature="0" />
    <path
       style="fill:#21abd9;stroke-width:0.75507557"
       d="m -18.320603,292.59901 c -0.545953,-0.21833 -1.319493,-1.25684 -1.71898,-2.30756 -1.681553,-4.42281 4.483963,-7.68042 7.199258,-3.80381 1.553473,2.21791 1.482688,3.30012 -0.334721,5.11755 -1.4739,1.47389 -3.140784,1.79582 -5.145557,0.99382 z"
       id="path4751"
       inkscape:connector-curvature="0" />
    <path
       style="fill:#21abd9;stroke-width:0.75507557"
       d="m -2.9325544,291.6593 c -1.702494,-1.88125 -0.934368,-4.42835 1.521312,-5.04469 1.036835,-0.26027 2.3397326,-0.0548 2.9699776,0.46825 1.587818,1.31775 1.394489,4.32378 -0.337705,5.25082 -2.0369896,1.09016 -2.6461926,0.99125 -4.1535846,-0.67438 z"
       id="path4749"
       inkscape:connector-curvature="0" />
    <path
       style="fill:#21abd9;stroke-width:0.75507557"
       d="m 59.033591,290.2874 c -1.47172,-1.47169 -1.25085,-3.21986 0.55008,-4.354 2.61627,-1.64759 5.56234,2.06506 3.55651,4.48195 -1.18854,1.43211 -2.59023,1.38844 -4.10659,-0.12786 z"
       id="path4747"
       inkscape:connector-curvature="0" />
    <path
       style="fill:#21abd9;stroke-width:0.75507557"
       d="m 71.111521,290.28456 c -1.47836,-1.47837 -1.23195,-4.74804 0.43649,-5.79196 1.94173,-1.21491 5.127484,-0.005 5.669174,2.1534 0.92688,3.693 -3.445544,6.29866 -6.105664,3.63856 z"
       id="path4745"
       inkscape:connector-curvature="0" />
    <path
       style="fill:#21abd9;stroke-width:0.75507557"
       d="m 48.466541,289.53676 c -0.67114,-0.67115 -1.09992,-1.58128 -0.95284,-2.02253 0.44355,-1.33063 2.53557,-2.31358 3.85028,-1.80908 1.58063,0.60655 1.61075,3.99111 0.0408,4.59352 -1.60114,0.61444 -1.54826,0.62814 -2.93832,-0.76191 z"
       id="path4743"
       inkscape:connector-curvature="0" />
    <path
       style="fill:#21abd9;stroke-width:0.75507557"
       d="m 7.0826142,289.09581 c -1.8965761,-1.89659 -0.4848261,-5.13451 2.2386606,-5.13451 0.7329152,0 1.6843102,0.65723 2.1142132,1.46049 1.010889,1.88886 0.998847,1.98981 -0.404906,3.39355 -1.4187972,1.41881 -2.7173772,1.51104 -3.9479678,0.28054 z"
       id="path4741"
       inkscape:connector-curvature="0" />
    <path
       style="fill:#21abd9;stroke-width:0.75507557"
       d="m 41.111638,286.15641 c -0.598169,-1.55879 0.212869,-3.39782 1.498479,-3.39782 0.585124,0 1.486851,0.50965 2.003845,1.1326 0.749931,0.90363 0.749931,1.36162 0,2.26522 -0.516994,0.62296 -1.418721,1.13263 -2.003845,1.13263 -0.585121,0 -1.259436,-0.50967 -1.498479,-1.13263 z"
       id="path4739"
       inkscape:connector-curvature="0" />
    <path
       style="fill:#21abd9;stroke-width:0.75507557"
       d="m 13.935385,284.46503 c -0.935189,-0.93519 -0.576475,-3.88151 0.523986,-4.30383 1.56085,-0.59892 3.678086,1.25384 3.356856,2.93759 -0.278763,1.46119 -2.872693,2.37439 -3.880842,1.36624 z"
       id="path4737"
       inkscape:connector-curvature="0" />
    <path
       style="fill:#21abd9;stroke-width:0.75507557"
       d="m 35.339079,281.60228 c 0,-1.24314 0.391365,-1.55961 1.698921,-1.37392 0.934407,0.13275 1.698919,0.75098 1.698919,1.37392 0,0.62293 -0.764512,1.24119 -1.698919,1.37389 -1.307556,0.18578 -1.698921,-0.13073 -1.698921,-1.37389 z"
       id="path4735"
       inkscape:connector-curvature="0" />
    <path
       style="fill:#21abd9;stroke-width:0.75507557"
       d="m 19.150906,278.92755 c -0.551594,-1.43745 1.369362,-3.04427 2.925505,-2.44713 0.658918,0.25286 1.084505,1.05541 0.945745,1.78342 -0.316398,1.66002 -3.29309,2.17036 -3.87125,0.66371 z"
       id="path4733"
       inkscape:connector-curvature="0" />
    <path
       style="fill:#21abd9;stroke-width:0.75507557"
       d="m 30.538852,277.62339 c 0.391908,-1.17576 2.081178,-1.38164 2.140374,-0.26085 0.02197,0.41531 -0.526867,0.87247 -1.219575,1.01597 -0.787325,0.16324 -1.132507,-0.11995 -0.920799,-0.75507 z"
       id="path4731"
       inkscape:connector-curvature="0" />
    <path
       style="fill:#21abd9;stroke-width:0.75507557"
       d="m 25.055813,274.52291 c -0.902434,-0.90245 -0.48756,-2.4964 0.649757,-2.4964 0.622937,0 1.132613,0.48961 1.132613,1.08806 0,1.26145 -1.077702,2.113 -1.78237,1.40834 z"
       id="path4719"
       inkscape:connector-curvature="0" />
    <path
       style="fill:#21abd9;stroke-width:0.75507557"
       d="m -29.772797,256.5094 c -0.830583,-0.83061 -1.510151,-2.18974 -1.510151,-3.02031 0,-1.94474 2.585707,-4.53047 4.530454,-4.53047 1.944744,0 4.530453,2.58573 4.530453,4.53047 0,1.94474 -2.585709,4.53045 -4.530453,4.53045 -0.830584,0 -2.189719,-0.67957 -3.020303,-1.51014 z"
       id="path4717"
       inkscape:connector-curvature="0" />
    <path
       style="fill:#21abd9;stroke-width:0.75507557"
       d="m 80.396231,248.21968 c -1.65856,-1.8327 -1.58105,-4.12579 0.19375,-5.73195 2.05781,-1.8623 5.422174,-1.28093 6.793724,1.17394 0.99553,1.78187 0.9765,2.19549 -0.18236,3.96416 -1.55331,2.37061 -4.930434,2.66532 -6.805104,0.59385 z"
       id="path4715"
       inkscape:connector-curvature="0" />
    <path
       style="fill:#21abd9;stroke-width:0.75507557"
       d="m -16.604184,254.65866 c -2.504082,-3.82171 1.494765,-7.90536 5.299809,-5.41219 2.2746953,1.49043 2.5188463,4.22043 0.537782,6.01327 -1.981437,1.79321 -4.434301,1.54065 -5.837591,-0.60108 z"
       id="path4713"
       inkscape:connector-curvature="0" />
    <path
       style="fill:#21abd9;stroke-width:0.75507557"
       d="m 63.917371,247.14655 c -1.62377,-1.3083 -2.05038,-2.90965 -1.30755,-4.90798 0.84285,-2.26745 5.51919,-2.43401 6.69422,-0.23829 1.11043,2.07485 0.98441,2.86718 -0.72851,4.58008 -1.74323,1.74323 -3.00681,1.89685 -4.65816,0.56631 z"
       id="path4543"
       inkscape:connector-curvature="0" />
    <path
       style="fill:#ed4333;stroke-width:0.75507557"
       d="m -18.320603,292.59901 c -0.545953,-0.21833 -1.319493,-1.25684 -1.71898,-2.30756 -1.681553,-4.42281 4.483963,-7.68042 7.199258,-3.80381 1.553473,2.21791 1.482688,3.30012 -0.334721,5.11755 -1.4739,1.47389 -3.140784,1.79582 -5.145557,0.99382 z"
       id="path4781"
       inkscape:connector-curvature="0" />
    <path
       style="fill:#ed4333;stroke-width:0.75507557"
       d="m -2.9325544,291.6593 c -1.702494,-1.88125 -0.934368,-4.42835 1.521312,-5.04469 1.036835,-0.26027 2.3397326,-0.0548 2.9699776,0.46825 1.587818,1.31775 1.394489,4.32378 -0.337705,5.25082 -2.0369896,1.09016 -2.6461926,0.99125 -4.1535846,-0.67438 z"
       id="path4779"
       inkscape:connector-curvature="0" />
    <path
       style="fill:#ed4333;stroke-width:0.75507557"
       d="m 59.033591,290.2874 c -1.47172,-1.47169 -1.25085,-3.21986 0.55008,-4.354 2.61627,-1.64759 5.56234,2.06506 3.55651,4.48195 -1.18854,1.43211 -2.59023,1.38844 -4.10659,-0.12786 z"
       id="path4777"
       inkscape:connector-curvature="0" />
    <path
       style="fill:#ed4333;stroke-width:0.75507557"
       d="m 71.111521,290.28456 c -1.47836,-1.47837 -1.23195,-4.74804 0.43649,-5.79196 1.94173,-1.21491 5.127484,-0.005 5.669174,2.1534 0.92688,3.693 -3.445544,6.29866 -6.105664,3.63856 z"
       id="path4775"
       inkscape:connector-curvature="0" />
    <path
       style="fill:#ed4333;stroke-width:0.75507557"
       d="m 48.905871,290.05253 c -0.53308,-0.32945 -0.85455,-1.41004 -0.71439,-2.40129 0.34899,-2.46828 3.917,-2.59751 4.2648,-0.15448 0.26554,1.86532 -2.01331,3.50575 -3.55041,2.55577 z"
       id="path4773"
       inkscape:connector-curvature="0" />
    <path
       style="fill:#ed4333;stroke-width:0.75507557"
       d="m 7.4784082,289.14519 c -2.7791791,-1.55531 -0.635371,-5.79316 2.4372587,-4.81795 0.9919721,0.31484 1.5463881,1.13982 1.5463881,2.30104 0,2.20082 -2.1364542,3.55065 -3.9836468,2.51691 z"
       id="path4771"
       inkscape:connector-curvature="0" />
    <path
       style="fill:#ed4333;stroke-width:0.75507557"
       d="m -29.772797,256.5094 c -0.830583,-0.83061 -1.510151,-2.18974 -1.510151,-3.02031 0,-1.94474 2.585707,-4.53047 4.530454,-4.53047 1.944744,0 4.530453,2.58573 4.530453,4.53047 0,1.94474 -2.585709,4.53045 -4.530453,4.53045 -0.830584,0 -2.189719,-0.67957 -3.020303,-1.51014 z"
       id="path4759"
       inkscape:connector-curvature="0" />
    <path
       style="fill:#ed4333;stroke-width:0.75507557"
       d="m 80.396231,248.21968 c -1.65856,-1.8327 -1.58105,-4.12579 0.19375,-5.73195 2.05781,-1.8623 5.422174,-1.28093 6.793724,1.17394 0.99553,1.78187 0.9765,2.19549 -0.18236,3.96416 -1.55331,2.37061 -4.930434,2.66532 -6.805104,0.59385 z"
       id="path4757"
       inkscape:connector-curvature="0" />
    <path
       style="fill:#ed4333;stroke-width:0.75507557"
       d="m -16.604184,254.65866 c -2.504082,-3.82171 1.494765,-7.90536 5.299809,-5.41219 2.2746953,1.49043 2.5188463,4.22043 0.537782,6.01327 -1.981437,1.79321 -4.434301,1.54065 -5.837591,-0.60108 z"
       id="path4755"
       inkscape:connector-curvature="0" />
    <path
       style="fill:#ed4333;stroke-width:0.75507557"
       d="m 63.917371,247.14655 c -1.62377,-1.3083 -2.05038,-2.90965 -1.30755,-4.90798 0.84285,-2.26745 5.51919,-2.43401 6.69422,-0.23829 1.11043,2.07485 0.98441,2.86718 -0.72851,4.58008 -1.74323,1.74323 -3.00681,1.89685 -4.65816,0.56631 z"
       id="path4541"
       inkscape:connector-curvature="0" />
    <path
       style="fill:#1b8bb6;stroke-width:0.75507557"
       d="m -18.320603,292.59901 c -0.545953,-0.21833 -1.319493,-1.25684 -1.71898,-2.30756 -1.681553,-4.42281 4.483963,-7.68042 7.199258,-3.80381 1.553473,2.21791 1.482688,3.30012 -0.334721,5.11755 -1.4739,1.47389 -3.140784,1.79582 -5.145557,0.99382 z"
       id="path4807"
       inkscape:connector-curvature="0" />
    <path
       style="fill:#1b8bb6;stroke-width:0.75507557"
       d="m -2.9325544,291.6593 c -1.702494,-1.88125 -0.934368,-4.42835 1.521312,-5.04469 1.036835,-0.26027 2.3397326,-0.0548 2.9699776,0.46825 1.587818,1.31775 1.394489,4.32378 -0.337705,5.25082 -2.0369896,1.09016 -2.6461926,0.99125 -4.1535846,-0.67438 z"
       id="path4805"
       inkscape:connector-curvature="0" />
    <path
       style="fill:#1b8bb6;stroke-width:0.75507557"
       d="m 59.033591,290.2874 c -1.47172,-1.47169 -1.25085,-3.21986 0.55008,-4.354 2.61627,-1.64759 5.56234,2.06506 3.55651,4.48195 -1.18854,1.43211 -2.59023,1.38844 -4.10659,-0.12786 z"
       id="path4803"
       inkscape:connector-curvature="0" />
    <path
       style="fill:#1b8bb6;stroke-width:0.75507557"
       d="m 71.111521,290.28456 c -1.47836,-1.47837 -1.23195,-4.74804 0.43649,-5.79196 1.94173,-1.21491 5.127484,-0.005 5.669174,2.1534 0.92688,3.693 -3.445544,6.29866 -6.105664,3.63856 z"
       id="path4801"
       inkscape:connector-curvature="0" />
    <path
       style="fill:#1b8bb6;stroke-width:0.75507557"
       d="m 48.905871,290.05253 c -0.53308,-0.32945 -0.85455,-1.41004 -0.71439,-2.40129 0.34899,-2.46828 3.917,-2.59751 4.2648,-0.15448 0.26554,1.86532 -2.01331,3.50575 -3.55041,2.55577 z"
       id="path4799"
       inkscape:connector-curvature="0" />
    <path
       style="fill:#1b8bb6;stroke-width:0.75507557"
       d="m 7.4784082,289.14519 c -2.7791791,-1.55531 -0.635371,-5.79316 2.4372587,-4.81795 0.9919721,0.31484 1.5463881,1.13982 1.5463881,2.30104 0,2.20082 -2.1364542,3.55065 -3.9836468,2.51691 z"
       id="path4797"
       inkscape:connector-curvature="0" />
    <path
       style="fill:#1b8bb6;stroke-width:0.75507557"
       d="m -28.442155,257.20916 c -2.398113,-1.39715 -3.082326,-3.61652 -1.744438,-5.6584 1.58301,-2.41596 5.149731,-2.49944 6.789122,-0.15903 1.553473,2.21791 1.482688,3.30012 -0.334721,5.11755 -1.675914,1.67591 -2.75844,1.83676 -4.709963,0.69975 z"
       id="path4785"
       inkscape:connector-curvature="0" />
    <path
       style="fill:#1b8bb6;stroke-width:0.75507557"
       d="m 80.656741,248.0904 c -1.8174,-1.81743 -1.88819,-2.89963 -0.33472,-5.11755 2.70423,-3.86079 8.881714,-0.62136 7.208314,3.78002 -1.18897,3.12722 -4.449434,3.76168 -6.873594,1.33753 z"
       id="path4539"
       inkscape:connector-curvature="0" />
    <path
       style="fill:#ed2b34;stroke-width:0.75507557"
       d="m -18.292566,291.93991 c -1.848801,-1.29496 -2.273949,-4.72247 -0.772071,-6.22432 0.49835,-0.49836 1.789529,-0.90608 2.869289,-0.90608 2.52614,0 3.775376,1.28502 3.775376,3.88357 0,1.79387 -2.243898,4.42223 -3.775376,4.42223 -0.230482,0 -1.174231,-0.52892 -2.097218,-1.1754 z"
       id="path4829"
       inkscape:connector-curvature="0" />
    <path
       style="fill:#ed2b34;stroke-width:0.75507557"
       d="m -2.0376794,292.29978 c -1.629119,-0.94887 -1.72438,-3.95062 -0.166409,-5.24362 0.883139,-0.73292 1.593999,-0.75849 3.0203026,-0.10866 2.131153,0.97104 2.437906,3.22213 0.678781,4.98126 -1.3753736,1.37538 -1.7421286,1.41391 -3.5326746,0.37101 z"
       id="path4827"
       inkscape:connector-curvature="0" />
    <path
       style="fill:#ed2b34;stroke-width:0.75507557"
       d="m 59.071301,290.32515 c -1.40375,-1.40373 -1.41579,-1.50468 -0.40491,-3.39354 0.88093,-1.64602 2.99234,-1.91497 4.35288,-0.55441 1.36054,1.36054 1.09161,3.47194 -0.55442,4.35286 -1.88887,1.01088 -1.9898,0.99885 -3.39355,-0.40491 z"
       id="path4825"
       inkscape:connector-curvature="0" />
    <path
       style="fill:#ed2b34;stroke-width:0.75507557"
       d="m 71.445931,290.12881 c -1.31819,-1.06742 -1.59295,-1.83969 -1.20476,-3.38635 0.72083,-2.872 4.02942,-3.60284 5.892794,-1.30168 1.74765,2.15823 1.7325,2.70075 -0.12739,4.56064 -1.859894,1.85987 -2.402384,1.87503 -4.560634,0.12736 z"
       id="path4823"
       inkscape:connector-curvature="0" />
    <path
       style="fill:#ed2b34;stroke-width:0.75507557"
       d="m -28.442155,257.20916 c -2.398113,-1.39715 -3.082326,-3.61652 -1.744438,-5.6584 1.58301,-2.41596 5.149731,-2.49944 6.789122,-0.15903 1.553473,2.21791 1.482688,3.30012 -0.334721,5.11755 -1.675914,1.67591 -2.75844,1.83676 -4.709963,0.69975 z"
       id="path4811"
       inkscape:connector-curvature="0" />
    <path
       style="fill:#ed2b34;stroke-width:0.75507557"
       d="m 80.656741,248.0904 c -1.8174,-1.81743 -1.88819,-2.89963 -0.33472,-5.11755 2.70423,-3.86079 8.881714,-0.62136 7.208314,3.78002 -1.18897,3.12722 -4.449434,3.76168 -6.873594,1.33753 z"
       id="path4537"
       inkscape:connector-curvature="0" />
    <path
       style="fill:#1872a1;stroke-width:0.75507557"
       d="m -18.292566,291.93991 c -1.848801,-1.29496 -2.273949,-4.72247 -0.772071,-6.22432 0.49835,-0.49836 1.789529,-0.90608 2.869289,-0.90608 2.52614,0 3.775376,1.28502 3.775376,3.88357 0,1.79387 -2.243898,4.42223 -3.775376,4.42223 -0.230482,0 -1.174231,-0.52892 -2.097218,-1.1754 z"
       id="path4847"
       inkscape:connector-curvature="0" />
    <path
       style="fill:#1872a1;stroke-width:0.75507557"
       d="m -2.0376794,292.29978 c -1.629119,-0.94887 -1.72438,-3.95062 -0.166409,-5.24362 0.883139,-0.73292 1.593999,-0.75849 3.0203026,-0.10866 2.131153,0.97104 2.437906,3.22213 0.678781,4.98126 -1.3753736,1.37538 -1.7421286,1.41391 -3.5326746,0.37101 z"
       id="path4845"
       inkscape:connector-curvature="0" />
    <path
       style="fill:#1872a1;stroke-width:0.75507557"
       d="m 59.071301,290.32515 c -1.40375,-1.40373 -1.41579,-1.50468 -0.40491,-3.39354 0.88093,-1.64602 2.99234,-1.91497 4.35288,-0.55441 1.36054,1.36054 1.09161,3.47194 -0.55442,4.35286 -1.88887,1.01088 -1.9898,0.99885 -3.39355,-0.40491 z"
       id="path4843"
       inkscape:connector-curvature="0" />
    <path
       style="fill:#1872a1;stroke-width:0.75507557"
       d="m 71.445931,290.12881 c -1.31819,-1.06742 -1.59295,-1.83969 -1.20476,-3.38635 0.72083,-2.872 4.02942,-3.60284 5.892794,-1.30168 1.74765,2.15823 1.7325,2.70075 -0.12739,4.56064 -1.859894,1.85987 -2.402384,1.87503 -4.560634,0.12736 z"
       id="path4841"
       inkscape:connector-curvature="0" />
    <g
       id="g4894"
       transform="translate(-4.5357143,25.702381)">
      <path
         sodipodi:type="inkscape:offset"
         inkscape:radius="0.41277257"
         inkscape:original="M 30.998047 242.94922 C 28.469972 242.66575 25.767704 243.51806 23.957031 245.31445 C 22.428181 246.83123 22.113614 247.29658 21.464844 249.01562 C 20.734444 250.95096 20.729339 252.44954 21.443359 254.7207 C 22.182179 257.07065 24.338164 259.34864 26.652344 260.22461 C 29.338724 261.24147 32.935818 260.87088 34.830078 259.38086 L 35.529297 258.83008 L 36.460938 259.75977 C 37.370038 260.66887 37.380109 260.70567 36.949219 261.36328 C 36.565899 261.94831 36.559967 262.06417 36.898438 262.25586 C 37.112578 262.37715 37.686005 262.83418 38.171875 263.27148 C 38.657735 263.70878 39.589781 264.48361 40.244141 264.99219 C 41.491791 265.9619 42.145738 266.50263 43.517578 267.69922 C 44.528808 268.58126 44.830053 268.60209 45.345703 267.83398 C 45.565503 267.50656 45.967091 267.00198 46.238281 266.71094 C 47.190851 265.6886 48.447266 263.98616 48.447266 263.7168 C 48.447266 263.56709 47.762531 262.86849 46.925781 262.16602 C 46.089041 261.46354 45.344244 260.82922 45.271484 260.75586 C 45.198684 260.68246 44.24766 259.91577 43.15625 259.05078 C 42.06484 258.18579 41.088541 257.35626 40.988281 257.20898 C 40.874071 257.04121 40.619911 257.111 40.306641 257.39453 C 39.661061 257.97877 39.376139 257.96467 38.792969 257.32031 C 38.352169 256.83324 38.34097 256.61562 38.65625 254.41602 C 39.06627 251.55547 38.901483 249.57289 38.126953 248.05469 C 37.296133 246.42615 35.181584 244.42914 33.427734 243.61719 C 32.663354 243.26331 31.840739 243.04371 30.998047 242.94922 z M 29.427734 244.41211 C 32.318944 244.20456 34.172421 245.06672 36.144531 247.53516 C 36.891501 248.47012 37.328826 249.78541 37.509766 251.64062 C 37.645516 253.03256 37.570614 253.44375 36.927734 254.80273 C 36.000894 256.76191 34.279146 258.46007 32.660156 259.01172 C 31.259406 259.489 28.663089 259.52627 27.287109 259.08789 C 25.938199 258.65817 23.475209 256.06714 22.949219 254.52344 C 22.033149 251.83493 22.562054 249.07397 24.402344 246.92383 C 25.809694 245.27952 27.227494 244.57006 29.427734 244.41211 z M 37.755859 257.35547 C 37.996539 257.35093 38.211105 257.49883 38.484375 257.80078 C 39.053515 258.42966 39.03792 258.98205 38.4375 259.52539 C 37.83547 260.07023 37.879536 260.07734 37.003906 259.30664 C 36.123846 258.53205 36.116974 258.46114 36.871094 257.83203 C 37.247734 257.51782 37.515179 257.36001 37.755859 257.35547 z M 40.492188 258.51953 C 40.634147 258.43183 41.00241 258.571 41.3125 258.83008 C 42.46752 259.795 42.882647 260.13645 44.960938 261.81641 C 46.131098 262.7623 47.097852 263.67075 47.107422 263.83594 C 47.126322 264.16311 44.782119 267.11039 44.511719 267.09961 C 44.420419 267.09561 42.946198 265.95619 41.236328 264.56445 C 39.526458 263.17272 38.128906 261.92006 38.128906 261.78125 C 38.128906 261.48883 40.108468 258.75668 40.492188 258.51953 z "
         style="fill:#000000;fill-opacity:1;stroke-width:0.26458335"
         id="path4912"
         d="m 29.041016,242.53516 c -2.000173,0.21222 -3.942426,1.06505 -5.375,2.48632 -1.53872,1.52658 -1.932247,2.11041 -2.587891,3.84766 -0.75503,2.0006 -0.759066,3.65336 -0.0293,5.97461 0.784839,2.49632 3.000647,4.83778 5.457031,5.76758 2.83153,1.0718 6.512377,0.7202 8.580079,-0.90625 l 0.410156,-0.32422 0.673828,0.67187 c 0.451627,0.45183 0.636708,0.70334 0.642578,0.72266 0.0029,0.01 0.01065,-0.023 -0.01172,0.0312 -0.02237,0.0542 -0.09091,0.16777 -0.197265,0.33008 -0.197971,0.30215 -0.345506,0.4808 -0.363282,0.79687 -0.0089,0.15804 0.06175,0.34475 0.158204,0.45508 0.09645,0.11033 0.196292,0.1696 0.296874,0.22656 0.0511,0.029 0.256686,0.17508 0.480469,0.35352 0.223784,0.17844 0.484638,0.39691 0.720703,0.60937 0.500759,0.45071 1.428952,1.22355 2.09375,1.74024 1.244126,0.96697 1.886567,1.49704 3.25586,2.69141 0.519703,0.4533 0.868713,0.75254 1.341797,0.78711 0.236541,0.0173 0.477459,-0.0744 0.652343,-0.2129 0.174884,-0.13846 0.307506,-0.31134 0.447266,-0.51953 0.199502,-0.29718 0.605986,-0.80661 0.853516,-1.07226 0.492483,-0.52856 1.048117,-1.21722 1.490234,-1.81641 0.221058,-0.29959 0.412688,-0.57427 0.554688,-0.80273 0.071,-0.11423 0.129494,-0.21555 0.175781,-0.31055 0.04629,-0.095 0.09766,-0.15159 0.09766,-0.3457 0,-0.17604 -0.04992,-0.22749 -0.08594,-0.28907 -0.03602,-0.0616 -0.07686,-0.11552 -0.123047,-0.17382 -0.09238,-0.1166 -0.211149,-0.24739 -0.355469,-0.39453 -0.28864,-0.29429 -0.675999,-0.65086 -1.103516,-1.00977 -0.417703,-0.35068 -0.81255,-0.68484 -1.111328,-0.93945 -0.149389,-0.12731 -0.27559,-0.23503 -0.367187,-0.31446 -0.0916,-0.0794 -0.168753,-0.15134 -0.148438,-0.13086 -0.08162,-0.0823 -0.120082,-0.10597 -0.238281,-0.20312 -0.118199,-0.0971 -0.278437,-0.22782 -0.470703,-0.38281 -0.384533,-0.30998 -0.896868,-0.71923 -1.44336,-1.15235 -0.54232,-0.42981 -1.055143,-0.84986 -1.443359,-1.17968 -0.194108,-0.16492 -0.357888,-0.30751 -0.474609,-0.41407 -0.116722,-0.10655 -0.212929,-0.22803 -0.164063,-0.15625 -0.15224,-0.22363 -0.495005,-0.3027 -0.716797,-0.24218 -0.221791,0.0605 -0.398665,0.18578 -0.583984,0.35351 -0.299165,0.27074 -0.445361,0.32018 -0.482422,0.31836 -0.03706,-0.002 -0.177118,-0.0648 -0.447266,-0.36328 -0.201044,-0.22215 -0.231088,-0.23605 -0.246093,-0.55274 -0.01501,-0.31669 0.05367,-0.91839 0.210937,-2.01562 0.416025,-2.90244 0.259554,-4.98075 -0.570312,-6.60742 -0.897585,-1.75941 -3.019356,-3.75779 -4.892579,-4.625 -0.807758,-0.37397 -1.67313,-0.60406 -2.55664,-0.70313 -0.662874,-0.0743 -1.337182,-0.0746 -2.003906,-0.004 z m 0.416015,2.28906 c 2.797214,-0.2008 4.442593,0.56223 6.365235,2.96875 0.678173,0.84885 1.100811,2.07865 1.277343,3.88867 0.133564,1.36953 0.08949,1.60422 -0.544921,2.94531 -0.881765,1.8639 -2.568578,3.49709 -4.027344,3.99414 -1.259567,0.42918 -3.888797,0.46496 -5.115235,0.0742 -0.515068,-0.16408 -1.478817,-0.88898 -2.302734,-1.75586 -0.823917,-0.86687 -1.547235,-1.89642 -1.769531,-2.54883 -0.8726,-2.56093 -0.375235,-5.15201 1.376953,-7.19921 1.356438,-1.58483 2.615412,-2.21466 4.740234,-2.36719 z m 8.306641,12.94336 c 0.06704,-0.001 0.167927,0.0386 0.414062,0.31054 0.242965,0.26847 0.312522,0.46232 0.308594,0.60547 -0.0039,0.14316 -0.07625,0.30899 -0.326172,0.53516 -0.14707,0.1331 -0.247166,0.22307 -0.300781,0.26172 0.04238,-0.001 -0.160621,-0.11346 -0.582031,-0.48438 -0.217871,-0.19176 -0.37741,-0.33623 -0.464844,-0.43359 -0.08743,-0.0974 -0.08033,-0.12995 -0.07617,-0.084 0.0042,0.046 -0.02929,0.0741 0.02734,0.008 0.05663,-0.0663 0.185729,-0.18326 0.371094,-0.33789 0.355037,-0.29619 0.562797,-0.37961 0.628906,-0.38086 z m 2.945312,1.10351 c -0.147852,0.0913 -0.110559,0.0246 -0.01563,0.0606 0.09493,0.0359 0.232262,0.11354 0.353516,0.21484 a 0.41281384,0.41281384 0 0 0 0.002,0 c 1.155597,0.96541 1.573686,1.30998 3.652344,2.99024 0.578057,0.46727 1.107793,0.92719 1.486328,1.2832 0.189267,0.17801 0.340749,0.33137 0.4375,0.43946 0.0097,0.0108 0.01101,0.0136 0.01953,0.0234 -0.05281,0.0928 -0.133576,0.21959 -0.236328,0.36914 -0.212878,0.30984 -0.50847,0.70368 -0.8125,1.08594 -0.30403,0.38226 -0.618411,0.75514 -0.865234,1.02344 -0.09573,0.10405 -0.166848,0.17375 -0.234375,0.23828 -0.01975,-0.0141 -0.02854,-0.019 -0.05078,-0.0352 -0.171695,-0.12472 -0.416029,-0.3109 -0.710937,-0.53906 -0.589817,-0.45632 -1.385618,-1.08723 -2.238281,-1.78125 -0.850613,-0.69235 -1.623605,-1.34948 -2.179688,-1.84766 -0.278041,-0.24908 -0.502698,-0.46077 -0.65039,-0.60937 -0.02954,-0.0297 -0.03952,-0.042 -0.0625,-0.0664 0.04664,-0.0848 0.107244,-0.18921 0.189453,-0.31836 0.184635,-0.29005 0.439346,-0.66179 0.707031,-1.03125 0.267685,-0.36945 0.548933,-0.7363 0.78125,-1.02148 0.116158,-0.14259 0.221392,-0.2658 0.302734,-0.35352 0.08134,-0.0877 0.160285,-0.1468 0.125,-0.125 z"
         transform="matrix(1.4941877,0,0,1.4941877,-14.939121,-130.95228)" />
    </g>
    <g
       id="g5413"
       transform="translate(68.224702,7.0870536)">
      <path
         inkscape:connector-curvature="0"
         id="path4651-3"
         d="m 11.977949,272.75687 c -0.226533,-0.32342 -0.411878,-0.79967 -0.411878,-1.05833 0,-0.63153 0.931645,-1.52863 1.5875,-1.52863 0.718044,0 1.5875,0.91945 1.5875,1.67879 0,1.38043 -1.97717,2.03028 -2.763122,0.90817 z"
         style="fill:#9e9e9f;stroke-width:0.26458332" />
      <path
         inkscape:connector-curvature="0"
         id="path4649-6"
         d="m 17.704405,273.02741 c -0.40812,-0.40812 -0.40812,-1.33813 0,-1.74625 0.519816,-0.51981 1.744815,-0.38426 2.073245,0.22941 0.617116,1.15309 -1.146608,2.44348 -2.073245,1.51684 z"
         style="fill:#9e9e9f;stroke-width:0.26458332" />
      <path
         inkscape:connector-curvature="0"
         id="path4647-7"
         d="m 56.283507,272.95151 c -0.190744,-0.22983 -0.255453,-0.67662 -0.155613,-1.07442 0.145566,-0.57997 0.297109,-0.66878 1.021734,-0.59874 0.718182,0.0694 0.864433,0.20149 0.938152,0.84727 0.12873,1.1277 -1.090586,1.68583 -1.804273,0.82589 z"
         style="fill:#9e9e9f;stroke-width:0.26458332" />
      <path
         inkscape:connector-curvature="0"
         id="path4645-5"
         d="m 60.357365,272.68349 c -0.401481,-0.61274 -0.401481,-0.71017 0,-1.32291 0.762548,-1.1638 2.537873,-0.76983 2.537873,0.56318 0,1.39447 -1.774013,1.92553 -2.537873,0.75973 z"
         style="fill:#9e9e9f;stroke-width:0.26458332" />
      <path
         inkscape:connector-curvature="0"
         id="path4643-3"
         d="m 52.587026,272.69619 c -0.475713,-0.5732 -0.08785,-1.4679 0.636352,-1.4679 0.872921,0 1.319747,0.61449 0.949661,1.306 -0.339598,0.63455 -1.127043,0.71493 -1.586013,0.1619 z"
         style="fill:#9e9e9f;stroke-width:0.26458332" />
      <path
         inkscape:connector-curvature="0"
         id="path4641-5"
         d="m 22.988114,272.59012 c -0.199142,-0.1294 -0.314003,-0.56079 -0.264584,-0.99371 0.07387,-0.64711 0.205246,-0.76504 0.852247,-0.76504 0.943106,0 1.484393,0.71013 1.058795,1.38906 -0.33109,0.52817 -1.127379,0.70696 -1.646458,0.36969 z"
         style="fill:#9e9e9f;stroke-width:0.26458332" />
      <path
         inkscape:connector-curvature="0"
         id="path4639-6"
         d="m 48.968002,271.8897 c -0.237463,-0.61881 0.09779,-1.19062 0.698069,-1.19062 0.673158,0 0.966002,0.66427 0.52637,1.19399 -0.420137,0.50624 -1.029528,0.50456 -1.224439,-0.003 z"
         style="fill:#9e9e9f;stroke-width:0.26458332" />
      <path
         inkscape:connector-curvature="0"
         id="path4637-2"
         d="m 27.190524,270.84828 c -0.237946,-0.2867 -0.241516,-0.5179 -0.01454,-0.942 0.337176,-0.63002 0.996864,-0.61628 1.40332,0.0292 0.612085,0.97208 -0.65073,1.80206 -1.388775,0.91277 z"
         style="fill:#9e9e9f;stroke-width:0.26458332" />
      <path
         inkscape:connector-curvature="0"
         id="path4635-9"
         d="m 46.292633,271.04218 c -0.546679,-0.20268 -0.396451,-1.13685 0.182822,-1.13685 0.282454,0 0.594199,0.13049 0.692767,0.28997 0.227362,0.36788 -0.436272,1.00976 -0.875589,0.84688 z"
         style="fill:#9e9e9f;stroke-width:0.26458332" />
      <path
         inkscape:connector-curvature="0"
         id="path4633-1"
         d="m 30.37932,269.01282 c -0.409156,-0.493 -0.08786,-1.22416 0.537946,-1.22416 0.641975,0 0.919391,0.67632 0.489759,1.194 -0.405438,0.48852 -0.641551,0.49545 -1.027705,0.0302 z"
         style="fill:#9e9e9f;stroke-width:0.26458332" />
      <path
         inkscape:connector-curvature="0"
         id="path4631-2"
         d="m 43.051488,268.7147 c 0,-0.2725 0.173408,-0.40228 0.46302,-0.3465 0.5577,0.1074 0.522534,0.57697 -0.05217,0.69663 -0.239707,0.0499 -0.410848,-0.0959 -0.41085,-0.35013 z"
         style="fill:#9e9e9f;stroke-width:0.26458332" />
      <path
         inkscape:connector-curvature="0"
         id="path4619-7"
         d="m 33.426964,265.52969 c -0.168239,-0.43843 0.429483,-0.80579 0.869048,-0.53412 0.349942,0.21627 0.06294,0.94101 -0.372649,0.94101 -0.187143,0 -0.410523,-0.1831 -0.496399,-0.40689 z"
         style="fill:#9e9e9f;stroke-width:0.26458332" />
      <path
         inkscape:connector-curvature="0"
         id="path4617-0"
         d="m 39.413467,257.29468 c -0.453827,-0.18312 -0.415086,-0.7483 0.07943,-1.1587 0.338344,-0.2808 0.484915,-0.26564 0.837169,0.0866 0.35225,0.35225 0.367413,0.49883 0.08661,0.83717 -0.356145,0.42913 -0.461039,0.45369 -1.003207,0.23492 z"
         style="fill:#9e9e9f;stroke-width:0.26458332" />
      <path
         inkscape:connector-curvature="0"
         id="path4615-9"
         d="m 31.938988,254.03033 c 0,-0.3985 0.138152,-0.54136 0.463021,-0.4788 0.254661,0.0491 0.463021,0.2645 0.463021,0.4788 0,0.2143 -0.20836,0.42975 -0.463021,0.4788 -0.324869,0.0626 -0.463021,-0.0803 -0.463021,-0.4788 z"
         style="fill:#9e9e9f;stroke-width:0.26458332" />
      <path
         inkscape:connector-curvature="0"
         id="path4613-3"
         d="m 41.559669,254.16262 c -0.209603,-0.54621 0.07459,-1.19062 0.525076,-1.19062 0.529659,0 1.054071,0.71371 0.872355,1.18725 -0.198358,0.51691 -1.199441,0.51933 -1.397431,0.003 z"
         style="fill:#9e9e9f;stroke-width:0.26458332" />
      <path
         inkscape:connector-curvature="0"
         id="path4611-6"
         d="m 29.469544,252.79561 c -0.338961,-0.33896 -0.172618,-1.09136 0.279651,-1.26491 0.614679,-0.23588 1.244116,0.58987 0.829996,1.08886 -0.315043,0.3796 -0.825161,0.46053 -1.109647,0.17605 z"
         style="fill:#9e9e9f;stroke-width:0.26458332" />
      <path
         inkscape:connector-curvature="0"
         id="path4609-0"
         d="m 44.261012,252.29164 c -0.778243,-0.77824 -0.25663,-1.96548 0.863534,-1.96548 0.872659,0 1.366525,0.4303 1.366525,1.19063 0,1.13201 -1.389952,1.61496 -2.230059,0.77485 z"
         style="fill:#9e9e9f;stroke-width:0.26458332" />
      <path
         inkscape:connector-curvature="0"
         id="path4607-6"
         d="m 26.382738,251.3845 c -0.291042,-0.29105 -0.529167,-0.63973 -0.529167,-0.77485 0,-0.40782 0.800951,-1.07724 1.288899,-1.07724 1.02396,0 1.438322,1.20374 0.676577,1.96548 -0.544635,0.54463 -0.798308,0.52461 -1.436309,-0.11339 z"
         style="fill:#9e9e9f;stroke-width:0.26458332" />
      <path
         inkscape:connector-curvature="0"
         id="path4605-2"
         d="m 60.778571,251.20088 c -1.196157,-0.4275 -1.441294,-2.19909 -0.398804,-2.88216 1.300131,-0.85188 2.808441,0.27497 2.423102,1.81028 -0.122544,0.48826 -1.239584,1.36459 -1.573726,1.23461 -0.02953,-0.0115 -0.232291,-0.0847 -0.450572,-0.16273 z"
         style="fill:#9e9e9f;stroke-width:0.26458332" />
      <path
         inkscape:connector-curvature="0"
         id="path4603-6"
         d="m 12.003953,250.63606 c -0.578298,-0.63901 -0.556487,-1.70805 0.04597,-2.25326 1.048918,-0.94926 2.691146,-0.21967 2.691146,1.19559 0,1.35501 -1.828572,2.0616 -2.737118,1.05767 z"
         style="fill:#9e9e9f;stroke-width:0.26458332" />
      <path
         inkscape:connector-curvature="0"
         id="path4601-1"
         d="m 48.749679,250.60146 c -0.951823,-1.05175 0.215082,-2.62708 1.57785,-2.13011 0.291042,0.10614 0.640181,0.50377 0.775862,0.88362 0.49593,1.38838 -1.343652,2.36259 -2.353712,1.24649 z"
         style="fill:#9e9e9f;stroke-width:0.26458332" />
      <path
         inkscape:connector-curvature="0"
         id="path4599-8"
         d="m 21.771429,250.43961 c -0.559803,-0.55981 -0.52384,-1.2565 0.09371,-1.81537 0.669856,-0.60621 1.362862,-0.44585 1.853899,0.42899 0.362661,0.64613 0.354135,0.75523 -0.09806,1.2549 -0.590583,0.65259 -1.279465,0.70156 -1.849547,0.13148 z"
         style="fill:#9e9e9f;stroke-width:0.26458332" />
      <path
         inkscape:connector-curvature="0"
         id="path4597-7"
         d="m 16.744345,250.17502 c -1.250687,-1.25068 0.380952,-3.07807 1.98287,-2.22075 0.586639,0.31396 0.711298,1.802 0.194273,2.31903 -0.449533,0.44953 -1.685108,0.39376 -2.177143,-0.0983 z"
         style="fill:#9e9e9f;stroke-width:0.26458332" />
      <path
         inkscape:connector-curvature="0"
         id="path4547-9"
         d="m 54.072704,250.10692 c -0.240837,-0.26612 -0.437883,-0.73562 -0.437883,-1.04333 0,-0.60225 0.906396,-1.38323 1.605365,-1.38323 0.582681,0 1.305052,0.84317 1.305052,1.52329 0,1.25005 -1.622341,1.84273 -2.472534,0.90327 z"
         style="fill:#9e9e9f;stroke-width:0.26458332" />
      <path
         inkscape:connector-curvature="0"
         id="path4709-2"
         d="m 12.408869,273.16399 c -0.191306,-0.0765 -0.462359,-0.4404 -0.602342,-0.80858 -0.589227,-1.54978 1.571209,-2.69127 2.522666,-1.33288 0.544347,0.77717 0.519544,1.15638 -0.117288,1.79322 -0.516464,0.51646 -1.100551,0.62927 -1.803036,0.34824 z"
         style="fill:#f4973b;stroke-width:0.26458332" />
      <path
         inkscape:connector-curvature="0"
         id="path4707-0"
         d="m 17.800939,272.83471 c -0.596564,-0.6592 -0.327409,-1.55172 0.533078,-1.76769 0.363313,-0.0912 0.819857,-0.0192 1.040699,0.16408 0.556382,0.46175 0.488638,1.51508 -0.118334,1.83992 -0.713775,0.382 -0.927243,0.34734 -1.455443,-0.23631 z"
         style="fill:#f4973b;stroke-width:0.26458332" />
      <path
         inkscape:connector-curvature="0"
         id="path4705-2"
         d="m 56.418629,272.91591 c -0.515696,-0.51569 -0.438306,-1.12826 0.192754,-1.52567 0.916755,-0.57733 1.949077,0.72361 1.246222,1.5705 -0.416472,0.50182 -0.907632,0.48652 -1.438976,-0.0448 z"
         style="fill:#f4973b;stroke-width:0.26458332" />
      <path
         inkscape:connector-curvature="0"
         id="path4703-3"
         d="m 60.650814,272.91491 c -0.518025,-0.51803 -0.431681,-1.66374 0.152951,-2.02954 0.680394,-0.42571 1.7967,-0.002 1.98651,0.75457 0.324786,1.29405 -1.207339,2.20709 -2.139461,1.27497 z"
         style="fill:#f4973b;stroke-width:0.26458332" />
      <path
         inkscape:connector-curvature="0"
         id="path4701-7"
         d="m 52.715868,272.65288 c -0.235173,-0.23518 -0.385419,-0.55409 -0.333881,-0.70871 0.155422,-0.46626 0.888479,-0.81069 1.349163,-0.63391 0.553863,0.21254 0.564418,1.39851 0.01431,1.6096 -0.561049,0.2153 -0.54252,0.2201 -1.029602,-0.26698 z"
         style="fill:#f4973b;stroke-width:0.26458332" />
      <path
         inkscape:connector-curvature="0"
         id="path4699-5"
         d="m 22.996071,272.49837 c -0.664572,-0.66458 -0.169886,-1.79917 0.784441,-1.79917 0.256818,0 0.590193,0.2303 0.740834,0.51177 0.354222,0.66187 0.350002,0.69724 -0.141882,1.18912 -0.497155,0.49716 -0.952186,0.52948 -1.383393,0.0983 z"
         style="fill:#f4973b;stroke-width:0.26458332" />
      <path
         inkscape:connector-curvature="0"
         id="path4697-9"
         d="m 48.968002,271.88982 c -0.209603,-0.54621 0.07459,-1.19062 0.525076,-1.19062 0.205031,0 0.521002,0.17859 0.70216,0.39687 0.262781,0.31664 0.262781,0.47712 0,0.79375 -0.181158,0.21829 -0.497129,0.39688 -0.70216,0.39688 -0.20503,0 -0.441314,-0.17859 -0.525076,-0.39688 z"
         style="fill:#f4973b;stroke-width:0.26458332" />
      <path
         inkscape:connector-curvature="0"
         id="path4695-2"
         d="m 27.364038,271.06302 c -0.327696,-0.3277 -0.202,-1.36011 0.183608,-1.50809 0.546932,-0.20987 1.288825,0.43935 1.176264,1.02935 -0.09768,0.51201 -1.00661,0.832 -1.359872,0.47874 z"
         style="fill:#f4973b;stroke-width:0.26458332" />
      <path
         inkscape:connector-curvature="0"
         id="path4693-2"
         d="m 45.961904,270.4345 c 0,-0.4356 0.137137,-0.5465 0.595313,-0.48143 0.327422,0.0465 0.595312,0.26315 0.595312,0.48143 0,0.21828 -0.26789,0.43492 -0.595312,0.48142 -0.458176,0.0651 -0.595313,-0.0458 -0.595313,-0.48142 z"
         style="fill:#f4973b;stroke-width:0.26458332" />
      <path
         inkscape:connector-curvature="0"
         id="path4691-8"
         d="m 30.268599,268.74804 c -0.193282,-0.50369 0.479833,-1.06673 1.025116,-0.85749 0.230889,0.0886 0.380017,0.36982 0.331395,0.62492 -0.110868,0.58168 -1.15392,0.76051 -1.356511,0.23257 z"
         style="fill:#f4973b;stroke-width:0.26458332" />
      <path
         inkscape:connector-curvature="0"
         id="path4689-9"
         d="m 43.109212,268.80614 c 0.137326,-0.41199 0.729258,-0.48413 0.750001,-0.0914 0.0077,0.14553 -0.184618,0.30572 -0.427347,0.356 -0.275884,0.0572 -0.396838,-0.042 -0.322654,-0.26458 z"
         style="fill:#f4973b;stroke-width:0.26458332" />
      <path
         inkscape:connector-curvature="0"
         id="path4677-7"
         d="m 33.695684,265.753 c -0.316219,-0.31622 -0.170844,-0.87475 0.227679,-0.87475 0.218281,0 0.396875,0.17156 0.396875,0.38126 0,0.44202 -0.377634,0.74041 -0.624554,0.49349 z"
         style="fill:#f4973b;stroke-width:0.26458332" />
      <path
         inkscape:connector-curvature="0"
         id="path4675-3"
         d="m 39.413467,257.29468 c -0.453827,-0.18312 -0.415086,-0.7483 0.07943,-1.1587 0.338344,-0.2808 0.484915,-0.26564 0.837169,0.0866 0.35225,0.35225 0.367413,0.49883 0.08661,0.83717 -0.356145,0.42913 -0.461039,0.45369 -1.003207,0.23492 z"
         style="fill:#f4973b;stroke-width:0.26458332" />
      <path
         inkscape:connector-curvature="0"
         id="path4673-6"
         d="m 31.938988,254.03033 c 0,-0.3985 0.138152,-0.54136 0.463021,-0.4788 0.254661,0.0491 0.463021,0.2645 0.463021,0.4788 0,0.2143 -0.20836,0.42975 -0.463021,0.4788 -0.324869,0.0626 -0.463021,-0.0803 -0.463021,-0.4788 z"
         style="fill:#f4973b;stroke-width:0.26458332" />
      <path
         inkscape:connector-curvature="0"
         id="path4671-1"
         d="m 41.559669,254.16262 c -0.209603,-0.54621 0.07459,-1.19062 0.525076,-1.19062 0.529659,0 1.054071,0.71371 0.872355,1.18725 -0.198358,0.51691 -1.199441,0.51933 -1.397431,0.003 z"
         style="fill:#f4973b;stroke-width:0.26458332" />
      <path
         inkscape:connector-curvature="0"
         id="path4669-2"
         d="m 29.47869,252.80475 c -0.342158,-0.34215 -0.189978,-1.09735 0.255582,-1.26833 0.557641,-0.21398 0.959656,0.17444 0.837428,0.80912 -0.09715,0.50447 -0.766526,0.7857 -1.09301,0.45921 z"
         style="fill:#f4973b;stroke-width:0.26458332" />
      <path
         inkscape:connector-curvature="0"
         id="path4667-9"
         d="m 44.286362,252.16113 c -0.516546,-0.73747 -0.260321,-1.53927 0.557485,-1.74453 0.832627,-0.20898 1.487704,0.17691 1.601388,0.94334 0.18774,1.26567 -1.416527,1.86104 -2.158873,0.80119 z"
         style="fill:#f4973b;stroke-width:0.26458332" />
      <path
         inkscape:connector-curvature="0"
         id="path4665-3"
         d="m 26.382738,251.3845 c -0.291042,-0.29105 -0.529167,-0.63973 -0.529167,-0.77485 0,-0.40782 0.800951,-1.07724 1.288899,-1.07724 1.02396,0 1.438322,1.20374 0.676577,1.96548 -0.544635,0.54463 -0.798308,0.52461 -1.436309,-0.11339 z"
         style="fill:#f4973b;stroke-width:0.26458332" />
      <path
         inkscape:connector-curvature="0"
         id="path4663-1"
         d="m 11.925181,250.43795 c -0.959916,-1.46502 0.66891,-3.09384 2.133928,-2.13393 0.466223,0.30548 0.681962,0.68304 0.681962,1.19349 0,1.56257 -1.975874,2.22247 -2.81589,0.94044 z"
         style="fill:#f4973b;stroke-width:0.26458332" />
      <path
         inkscape:connector-curvature="0"
         id="path4661-9"
         d="m 48.73278,250.58273 c -0.385194,-0.42563 -0.433591,-0.6866 -0.233074,-1.25677 0.217683,-0.61898 0.399256,-0.71959 1.298657,-0.71959 0.8994,0 1.080973,0.10061 1.298657,0.71959 0.503436,1.43152 -1.326013,2.404 -2.36424,1.25677 z"
         style="fill:#f4973b;stroke-width:0.26458332" />
      <path
         inkscape:connector-curvature="0"
         id="path4659-4"
         d="m 60.15812,250.63603 c -1.147233,-1.26768 0.262089,-3.17662 1.762252,-2.38699 0.726171,0.38222 0.965674,0.73767 0.970815,1.44077 0.0092,1.25414 -1.86667,1.90358 -2.733067,0.94622 z"
         style="fill:#f4973b;stroke-width:0.26458332" />
      <path
         inkscape:connector-curvature="0"
         id="path4657-7"
         d="m 21.793537,250.37148 c -0.615137,-0.67972 -0.544957,-1.28588 0.205834,-1.77781 1.187586,-0.77814 2.386521,0.44495 1.605145,1.63748 -0.489513,0.74709 -1.211252,0.80302 -1.810979,0.14033 z"
         style="fill:#f4973b;stroke-width:0.26458332" />
      <path
         inkscape:connector-curvature="0"
         id="path4655-8"
         d="m 16.766454,250.10689 c -0.574462,-0.63477 -0.555752,-1.44413 0.04597,-1.98868 1.025674,-0.92822 2.426562,-0.25899 2.426562,1.15921 0,1.24264 -1.609866,1.78271 -2.472534,0.82947 z"
         style="fill:#f4973b;stroke-width:0.26458332" />
      <path
         inkscape:connector-curvature="0"
         id="path4545-4"
         d="m 54.015853,249.94224 c -0.877446,-1.33915 0.523777,-2.77009 1.857089,-1.89647 0.797068,0.52226 0.882618,1.47887 0.188442,2.10709 -0.694309,0.62835 -1.553808,0.53985 -2.045531,-0.21062 z"
         style="fill:#f4973b;stroke-width:0.26458332" />
      <path
         inkscape:connector-curvature="0"
         id="path4751-5"
         d="m 12.408869,273.16399 c -0.191306,-0.0765 -0.462359,-0.4404 -0.602342,-0.80858 -0.589227,-1.54978 1.571209,-2.69127 2.522666,-1.33288 0.544347,0.77717 0.519544,1.15638 -0.117288,1.79322 -0.516464,0.51646 -1.100551,0.62927 -1.803036,0.34824 z"
         style="fill:#21abd9;stroke-width:0.26458332" />
      <path
         inkscape:connector-curvature="0"
         id="path4749-0"
         d="m 17.800939,272.83471 c -0.596564,-0.6592 -0.327409,-1.55172 0.533078,-1.76769 0.363313,-0.0912 0.819857,-0.0192 1.040699,0.16408 0.556382,0.46175 0.488638,1.51508 -0.118334,1.83992 -0.713775,0.382 -0.927243,0.34734 -1.455443,-0.23631 z"
         style="fill:#21abd9;stroke-width:0.26458332" />
      <path
         inkscape:connector-curvature="0"
         id="path4747-3"
         d="m 56.418629,272.91591 c -0.515696,-0.51569 -0.438306,-1.12826 0.192754,-1.52567 0.916755,-0.57733 1.949077,0.72361 1.246222,1.5705 -0.416472,0.50182 -0.907632,0.48652 -1.438976,-0.0448 z"
         style="fill:#21abd9;stroke-width:0.26458332" />
      <path
         inkscape:connector-curvature="0"
         id="path4745-6"
         d="m 60.650814,272.91491 c -0.518025,-0.51803 -0.431681,-1.66374 0.152951,-2.02954 0.680394,-0.42571 1.7967,-0.002 1.98651,0.75457 0.324786,1.29405 -1.207339,2.20709 -2.139461,1.27497 z"
         style="fill:#21abd9;stroke-width:0.26458332" />
      <path
         inkscape:connector-curvature="0"
         id="path4743-1"
         d="m 52.715868,272.65288 c -0.235173,-0.23518 -0.385419,-0.55409 -0.333881,-0.70871 0.155422,-0.46626 0.888479,-0.81069 1.349163,-0.63391 0.553863,0.21254 0.564418,1.39851 0.01431,1.6096 -0.561049,0.2153 -0.54252,0.2201 -1.029602,-0.26698 z"
         style="fill:#21abd9;stroke-width:0.26458332" />
      <path
         inkscape:connector-curvature="0"
         id="path4741-0"
         d="m 22.996071,272.49837 c -0.664572,-0.66458 -0.169886,-1.79917 0.784441,-1.79917 0.256818,0 0.590193,0.2303 0.740834,0.51177 0.354222,0.66187 0.350002,0.69724 -0.141882,1.18912 -0.497155,0.49716 -0.952186,0.52948 -1.383393,0.0983 z"
         style="fill:#21abd9;stroke-width:0.26458332" />
      <path
         inkscape:connector-curvature="0"
         id="path4739-6"
         d="m 48.968002,271.88982 c -0.209603,-0.54621 0.07459,-1.19062 0.525076,-1.19062 0.205031,0 0.521002,0.17859 0.70216,0.39687 0.262781,0.31664 0.262781,0.47712 0,0.79375 -0.181158,0.21829 -0.497129,0.39688 -0.70216,0.39688 -0.20503,0 -0.441314,-0.17859 -0.525076,-0.39688 z"
         style="fill:#21abd9;stroke-width:0.26458332" />
      <path
         inkscape:connector-curvature="0"
         id="path4737-3"
         d="m 27.364038,271.06302 c -0.327696,-0.3277 -0.202,-1.36011 0.183608,-1.50809 0.546932,-0.20987 1.288825,0.43935 1.176264,1.02935 -0.09768,0.51201 -1.00661,0.832 -1.359872,0.47874 z"
         style="fill:#21abd9;stroke-width:0.26458332" />
      <path
         inkscape:connector-curvature="0"
         id="path4735-2"
         d="m 45.961904,270.4345 c 0,-0.4356 0.137137,-0.5465 0.595313,-0.48143 0.327422,0.0465 0.595312,0.26315 0.595312,0.48143 0,0.21828 -0.26789,0.43492 -0.595312,0.48142 -0.458176,0.0651 -0.595313,-0.0458 -0.595313,-0.48142 z"
         style="fill:#21abd9;stroke-width:0.26458332" />
      <path
         inkscape:connector-curvature="0"
         id="path4733-0"
         d="m 30.268599,268.74804 c -0.193282,-0.50369 0.479833,-1.06673 1.025116,-0.85749 0.230889,0.0886 0.380017,0.36982 0.331395,0.62492 -0.110868,0.58168 -1.15392,0.76051 -1.356511,0.23257 z"
         style="fill:#21abd9;stroke-width:0.26458332" />
      <path
         inkscape:connector-curvature="0"
         id="path4731-6"
         d="m 43.109212,268.80614 c 0.137326,-0.41199 0.729258,-0.48413 0.750001,-0.0914 0.0077,0.14553 -0.184618,0.30572 -0.427347,0.356 -0.275884,0.0572 -0.396838,-0.042 -0.322654,-0.26458 z"
         style="fill:#21abd9;stroke-width:0.26458332" />
      <path
         inkscape:connector-curvature="0"
         id="path4719-1"
         d="m 33.695684,265.753 c -0.316219,-0.31622 -0.170844,-0.87475 0.227679,-0.87475 0.218281,0 0.396875,0.17156 0.396875,0.38126 0,0.44202 -0.377634,0.74041 -0.624554,0.49349 z"
         style="fill:#21abd9;stroke-width:0.26458332" />
      <path
         inkscape:connector-curvature="0"
         id="path4717-5"
         d="m 12.095238,250.59075 c -0.291042,-0.29105 -0.529167,-0.7673 -0.529167,-1.05834 0,-0.68145 0.906049,-1.5875 1.5875,-1.5875 0.681452,0 1.5875,0.90605 1.5875,1.5875 0,0.68145 -0.906048,1.5875 -1.5875,1.5875 -0.291041,0 -0.767291,-0.23812 -1.058333,-0.52916 z"
         style="fill:#21abd9;stroke-width:0.26458332" />
      <path
         inkscape:connector-curvature="0"
         id="path4715-5"
         d="m 60.15812,250.63605 c -0.58117,-0.64219 -0.554013,-1.4457 0.06789,-2.00851 0.721069,-0.65256 1.899962,-0.44885 2.380562,0.41135 0.34884,0.62438 0.342172,0.76932 -0.0639,1.38907 -0.544287,0.83068 -1.727652,0.93395 -2.384549,0.20809 z"
         style="fill:#21abd9;stroke-width:0.26458332" />
      <path
         inkscape:connector-curvature="0"
         id="path4713-4"
         d="m 16.709604,249.94224 c -0.877446,-1.33915 0.523776,-2.77009 1.857087,-1.89647 0.797068,0.52226 0.88262,1.47887 0.188443,2.10709 -0.694309,0.62835 -1.553808,0.53985 -2.04553,-0.21062 z"
         style="fill:#21abd9;stroke-width:0.26458332" />
      <path
         inkscape:connector-curvature="0"
         id="path4543-7"
         d="m 54.383822,250.26002 c -0.568979,-0.45844 -0.718468,-1.01956 -0.458176,-1.71979 0.295341,-0.79453 1.933961,-0.85289 2.3457,-0.0835 0.389099,0.72704 0.34494,1.00468 -0.255275,1.60489 -0.610841,0.61084 -1.053605,0.66467 -1.632249,0.19844 z"
         style="fill:#21abd9;stroke-width:0.26458332" />
      <path
         inkscape:connector-curvature="0"
         id="path4781-6"
         d="m 12.408869,273.16399 c -0.191306,-0.0765 -0.462359,-0.4404 -0.602342,-0.80858 -0.589227,-1.54978 1.571209,-2.69127 2.522666,-1.33288 0.544347,0.77717 0.519544,1.15638 -0.117288,1.79322 -0.516464,0.51646 -1.100551,0.62927 -1.803036,0.34824 z"
         style="fill:#ed4333;stroke-width:0.26458332" />
      <path
         inkscape:connector-curvature="0"
         id="path4779-5"
         d="m 17.800939,272.83471 c -0.596564,-0.6592 -0.327409,-1.55172 0.533078,-1.76769 0.363313,-0.0912 0.819857,-0.0192 1.040699,0.16408 0.556382,0.46175 0.488638,1.51508 -0.118334,1.83992 -0.713775,0.382 -0.927243,0.34734 -1.455443,-0.23631 z"
         style="fill:#ed4333;stroke-width:0.26458332" />
      <path
         inkscape:connector-curvature="0"
         id="path4777-6"
         d="m 56.418629,272.91591 c -0.515696,-0.51569 -0.438306,-1.12826 0.192754,-1.52567 0.916755,-0.57733 1.949077,0.72361 1.246222,1.5705 -0.416472,0.50182 -0.907632,0.48652 -1.438976,-0.0448 z"
         style="fill:#ed4333;stroke-width:0.26458332" />
      <path
         inkscape:connector-curvature="0"
         id="path4775-9"
         d="m 60.650814,272.91491 c -0.518025,-0.51803 -0.431681,-1.66374 0.152951,-2.02954 0.680394,-0.42571 1.7967,-0.002 1.98651,0.75457 0.324786,1.29405 -1.207339,2.20709 -2.139461,1.27497 z"
         style="fill:#ed4333;stroke-width:0.26458332" />
      <path
         inkscape:connector-curvature="0"
         id="path4773-3"
         d="m 52.869813,272.83361 c -0.186794,-0.11544 -0.29944,-0.49409 -0.250328,-0.84143 0.122291,-0.8649 1.372542,-0.91018 1.494412,-0.0541 0.09305,0.65362 -0.705475,1.22844 -1.244084,0.89556 z"
         style="fill:#ed4333;stroke-width:0.26458332" />
      <path
         inkscape:connector-curvature="0"
         id="path4771-7"
         d="m 23.13476,272.51567 c -0.973842,-0.54499 -0.222638,-2.02996 0.854031,-1.68824 0.347593,0.11032 0.541864,0.3994 0.541864,0.8063 0,0.77118 -0.748627,1.24417 -1.395895,0.88194 z"
         style="fill:#ed4333;stroke-width:0.26458332" />
      <path
         inkscape:connector-curvature="0"
         id="path4759-4"
         d="m 12.095238,250.59075 c -0.291042,-0.29105 -0.529167,-0.7673 -0.529167,-1.05834 0,-0.68145 0.906049,-1.5875 1.5875,-1.5875 0.681452,0 1.5875,0.90605 1.5875,1.5875 0,0.68145 -0.906048,1.5875 -1.5875,1.5875 -0.291041,0 -0.767291,-0.23812 -1.058333,-0.52916 z"
         style="fill:#ed4333;stroke-width:0.26458332" />
      <path
         inkscape:connector-curvature="0"
         id="path4757-5"
         d="m 60.15812,250.63605 c -0.58117,-0.64219 -0.554013,-1.4457 0.06789,-2.00851 0.721069,-0.65256 1.899962,-0.44885 2.380562,0.41135 0.34884,0.62438 0.342172,0.76932 -0.0639,1.38907 -0.544287,0.83068 -1.727652,0.93395 -2.384549,0.20809 z"
         style="fill:#ed4333;stroke-width:0.26458332" />
      <path
         inkscape:connector-curvature="0"
         id="path4755-2"
         d="m 16.709604,249.94224 c -0.877446,-1.33915 0.523776,-2.77009 1.857087,-1.89647 0.797068,0.52226 0.88262,1.47887 0.188443,2.10709 -0.694309,0.62835 -1.553808,0.53985 -2.04553,-0.21062 z"
         style="fill:#ed4333;stroke-width:0.26458332" />
      <path
         inkscape:connector-curvature="0"
         id="path4541-5"
         d="m 54.383822,250.26002 c -0.568979,-0.45844 -0.718468,-1.01956 -0.458176,-1.71979 0.295341,-0.79453 1.933961,-0.85289 2.3457,-0.0835 0.389099,0.72704 0.34494,1.00468 -0.255275,1.60489 -0.610841,0.61084 -1.053605,0.66467 -1.632249,0.19844 z"
         style="fill:#ed4333;stroke-width:0.26458332" />
      <path
         inkscape:connector-curvature="0"
         id="path4807-4"
         d="m 12.408869,273.16399 c -0.191306,-0.0765 -0.462359,-0.4404 -0.602342,-0.80858 -0.589227,-1.54978 1.571209,-2.69127 2.522666,-1.33288 0.544347,0.77717 0.519544,1.15638 -0.117288,1.79322 -0.516464,0.51646 -1.100551,0.62927 -1.803036,0.34824 z"
         style="fill:#1b8bb6;stroke-width:0.26458332" />
      <path
         inkscape:connector-curvature="0"
         id="path4805-7"
         d="m 17.800939,272.83471 c -0.596564,-0.6592 -0.327409,-1.55172 0.533078,-1.76769 0.363313,-0.0912 0.819857,-0.0192 1.040699,0.16408 0.556382,0.46175 0.488638,1.51508 -0.118334,1.83992 -0.713775,0.382 -0.927243,0.34734 -1.455443,-0.23631 z"
         style="fill:#1b8bb6;stroke-width:0.26458332" />
      <path
         inkscape:connector-curvature="0"
         id="path4803-4"
         d="m 56.418629,272.91591 c -0.515696,-0.51569 -0.438306,-1.12826 0.192754,-1.52567 0.916755,-0.57733 1.949077,0.72361 1.246222,1.5705 -0.416472,0.50182 -0.907632,0.48652 -1.438976,-0.0448 z"
         style="fill:#1b8bb6;stroke-width:0.26458332" />
      <path
         inkscape:connector-curvature="0"
         id="path4801-4"
         d="m 60.650814,272.91491 c -0.518025,-0.51803 -0.431681,-1.66374 0.152951,-2.02954 0.680394,-0.42571 1.7967,-0.002 1.98651,0.75457 0.324786,1.29405 -1.207339,2.20709 -2.139461,1.27497 z"
         style="fill:#1b8bb6;stroke-width:0.26458332" />
      <path
         inkscape:connector-curvature="0"
         id="path4799-3"
         d="m 52.869813,272.83361 c -0.186794,-0.11544 -0.29944,-0.49409 -0.250328,-0.84143 0.122291,-0.8649 1.372542,-0.91018 1.494412,-0.0541 0.09305,0.65362 -0.705475,1.22844 -1.244084,0.89556 z"
         style="fill:#1b8bb6;stroke-width:0.26458332" />
      <path
         inkscape:connector-curvature="0"
         id="path4797-0"
         d="m 23.13476,272.51567 c -0.973842,-0.54499 -0.222638,-2.02996 0.854031,-1.68824 0.347593,0.11032 0.541864,0.3994 0.541864,0.8063 0,0.77118 -0.748627,1.24417 -1.395895,0.88194 z"
         style="fill:#1b8bb6;stroke-width:0.26458332" />
      <path
         inkscape:connector-curvature="0"
         id="path4785-7"
         d="m 12.561503,250.83595 c -0.840314,-0.48957 -1.080066,-1.26725 -0.611262,-1.98274 0.554697,-0.84657 1.804499,-0.87582 2.378952,-0.0557 0.544347,0.77717 0.519544,1.15638 -0.117288,1.79322 -0.587251,0.58725 -0.966575,0.64361 -1.650402,0.2452 z"
         style="fill:#1b8bb6;stroke-width:0.26458332" />
      <path
         inkscape:connector-curvature="0"
         id="path4539-8"
         d="m 60.249404,250.59075 c -0.636831,-0.63684 -0.661635,-1.01605 -0.117289,-1.79322 0.947581,-1.35285 3.112209,-0.21773 2.525836,1.32454 -0.41662,1.0958 -1.559107,1.31812 -2.408547,0.46868 z"
         style="fill:#1b8bb6;stroke-width:0.26458332" />
      <path
         inkscape:connector-curvature="0"
         id="path4829-6"
         d="m 12.418693,272.93304 c -0.647832,-0.45376 -0.796807,-1.65478 -0.270538,-2.18104 0.174625,-0.17463 0.627062,-0.3175 1.005416,-0.3175 0.885176,0 1.322917,0.45028 1.322917,1.36083 0,0.62858 -0.786277,1.54958 -1.322917,1.54958 -0.08076,0 -0.411457,-0.18534 -0.734878,-0.41187 z"
         style="fill:#ed2b34;stroke-width:0.26458332" />
      <path
         inkscape:connector-curvature="0"
         id="path4827-8"
         d="m 18.114509,273.05914 c -0.570853,-0.33249 -0.604233,-1.38432 -0.05831,-1.8374 0.309457,-0.25682 0.558547,-0.26578 1.058333,-0.0381 0.74677,0.34026 0.854258,1.12906 0.237849,1.74547 -0.481939,0.48194 -0.610453,0.49544 -1.237872,0.13 z"
         style="fill:#ed2b34;stroke-width:0.26458332" />
      <path
         inkscape:connector-curvature="0"
         id="path4825-8"
         d="m 56.431845,272.92914 c -0.491884,-0.49188 -0.496104,-0.52725 -0.141883,-1.18912 0.308684,-0.57678 1.048534,-0.67102 1.525276,-0.19427 0.476742,0.47674 0.382508,1.21659 -0.194273,1.52527 -0.661871,0.35422 -0.697236,0.35 -1.18912,-0.14188 z"
         style="fill:#ed2b34;stroke-width:0.26458332" />
      <path
         inkscape:connector-curvature="0"
         id="path4823-4"
         d="m 60.767996,272.86034 c -0.461905,-0.37403 -0.558181,-0.64464 -0.422156,-1.1866 0.252581,-1.00637 1.411933,-1.26246 2.064871,-0.45612 0.612387,0.75626 0.607076,0.94636 -0.04464,1.59808 -0.651716,0.65171 -0.841812,0.65702 -1.598075,0.0446 z"
         style="fill:#ed2b34;stroke-width:0.26458332" />
      <path
         inkscape:connector-curvature="0"
         id="path4811-3"
         d="m 12.561503,250.83595 c -0.840314,-0.48957 -1.080066,-1.26725 -0.611262,-1.98274 0.554697,-0.84657 1.804499,-0.87582 2.378952,-0.0557 0.544347,0.77717 0.519544,1.15638 -0.117288,1.79322 -0.587251,0.58725 -0.966575,0.64361 -1.650402,0.2452 z"
         style="fill:#ed2b34;stroke-width:0.26458332" />
      <path
         inkscape:connector-curvature="0"
         id="path4537-1"
         d="m 60.249404,250.59075 c -0.636831,-0.63684 -0.661635,-1.01605 -0.117289,-1.79322 0.947581,-1.35285 3.112209,-0.21773 2.525836,1.32454 -0.41662,1.0958 -1.559107,1.31812 -2.408547,0.46868 z"
         style="fill:#ed2b34;stroke-width:0.26458332" />
      <path
         inkscape:connector-curvature="0"
         id="path4847-4"
         d="m 12.418693,272.93304 c -0.647832,-0.45376 -0.796807,-1.65478 -0.270538,-2.18104 0.174625,-0.17463 0.627062,-0.3175 1.005416,-0.3175 0.885176,0 1.322917,0.45028 1.322917,1.36083 0,0.62858 -0.786277,1.54958 -1.322917,1.54958 -0.08076,0 -0.411457,-0.18534 -0.734878,-0.41187 z"
         style="fill:#1872a1;stroke-width:0.26458332" />
      <path
         inkscape:connector-curvature="0"
         id="path4845-9"
         d="m 18.114509,273.05914 c -0.570853,-0.33249 -0.604233,-1.38432 -0.05831,-1.8374 0.309457,-0.25682 0.558547,-0.26578 1.058333,-0.0381 0.74677,0.34026 0.854258,1.12906 0.237849,1.74547 -0.481939,0.48194 -0.610453,0.49544 -1.237872,0.13 z"
         style="fill:#1872a1;stroke-width:0.26458332" />
      <path
         inkscape:connector-curvature="0"
         id="path4843-2"
         d="m 56.431845,272.92914 c -0.491884,-0.49188 -0.496104,-0.52725 -0.141883,-1.18912 0.308684,-0.57678 1.048534,-0.67102 1.525276,-0.19427 0.476742,0.47674 0.382508,1.21659 -0.194273,1.52527 -0.661871,0.35422 -0.697236,0.35 -1.18912,-0.14188 z"
         style="fill:#1872a1;stroke-width:0.26458332" />
      <path
         inkscape:connector-curvature="0"
         id="path4841-0"
         d="m 60.767996,272.86034 c -0.461905,-0.37403 -0.558181,-0.64464 -0.422156,-1.1866 0.252581,-1.00637 1.411933,-1.26246 2.064871,-0.45612 0.612387,0.75626 0.607076,0.94636 -0.04464,1.59808 -0.651716,0.65171 -0.841812,0.65702 -1.598075,0.0446 z"
         style="fill:#1872a1;stroke-width:0.26458332" />
    </g>
  </g>
</svg>
