<svg height="32" width="32" xmlns="http://www.w3.org/2000/svg"><g fill="#515151"><path d="M13.2 6.3zM15.6 1a14.2 14.2 0 100 28.4 14.2 14.2 0 000-28.4zm13 14.2v.7l-.3-.6-.4-1-.5-.4c-.2 0-.3-.3-.6-.5-.4-.2-.5-.3-.8-.3-.3 0-.6-.4-1-.6l-.3-.1.3.7c0 .2.5.4 1 .3 0 0 .2.6.4.7.1.1 0 .3-.4.5l-.4.3-.7.5c-.2 0-.8.4-1 0-.2 0-.2-.4-.3-.6 0-.2-1-1.7-1.6-2.4l-.4-.5c-.2-.1.3-.1.3-.1v-.6-.6l-.6.4c-.2 0-.3-.2-.5-.5l-.4-.7c0-.3.2-.4.2-.4l.4-.2h1.8s.2-.3 0-.5c-.2-.1-.7-.4-.9-.3-.2 0 .1-.3.4-.4l-.6-.1-.6.2-.6.4c-.2.3 0 .6-.1.7a3 3 0 01-.5.2h-.6c-.5 0-.2.5 0 .6l-.4-.4-.3-.7-.6-.4-.8-.4v.4l.6.6.3.4h-.6v-.4c-.7-.1-.5-.3-.6-.3l-.4-.4-.8.2-.4.3c-.3 0-.5.2-.6.4l-.6.7c-.2.2-.5.2-.7.2l-.8-.2v-.8-.6l.4-.1.8-.2.2-.1.3-.4s-.4-.2-.1-.6l.7-.3.5-.3.7-.6.5-.2s.8.7 1 .7l.7-.4v-.5l-.2-.7-.3.5-.3.4s-.6 0-.7-.2l-.2-.5c0-.2-.4-.2-.7 0-.3 0 0-.6 0-.6s.3-.4.5-.4l.8-.3 1-.2h2.5s.9.3.6.5l.5.4c.1.1.5-.2.7-.3a13 13 0 016 11zM5.3 7.6c0 .2-.3.2 0 .7.3.6 0 1 0 1l-1 .6c0 .1-.5.6-.2.5.2-.2.5-.3.3 0l-.8 1.4c-.1.3-.6.8-.6 1 0 .4-.2 1-.1 1.2l-.2.9c0-2.8 1-5.3 2.5-7.4h.1zm1.6-2A13 13 0 0111 3.2l-.3.4s-.4 0-1 .7l-.6.7-.5.5-.5.5-.5.2-.5-.2s-.3.2-.3 0v-.2zm5.8 1.2l-.2-.3.2-.4.5.2v-.9l.4-.2.4.5.6.6-.4.3-1 .2v-.5l-.5.5zm6.4 4.6l.4.2s1.3.2 1.5.4l.6.3c0 .2.4.6.5.8l.3.9.4.9c.1.2 1 1.3 1.2 1.8l1-.2-.3.6c0 .2-.4.6-.5.8l-.7.7c-.3.2-.3.5-.4.7l-.3.6.1 1.2c.1.2-.3.7-.3.7l-.5.4-.6.8v.8l-.6.5-.4.5-1.2.6-1.2.2v-.9l-.3-.8c-.1-.2-.1-.5-.4-.7l-.4-.6.1-.6.3-.7-.1-.7-.2-.8c0-.2-.3-.4-.5-.6v-.5l-.2-1c0-.3-.4 0-.7 0-.3.1-.5 0-.5-.4s-.5 0-.9.2c-.3.2-.7.2-1.1.3-.4.2-.6-.1-.6-.1l-.6-.5a4.8 4.8 0 01-1.4-2v-.8-.7l.4-.8c.1-.3.7-.6.8-.7.2 0 .5-.3.5-.5s.2-.3.3-.5c.1-.2.5-.7.9-.5l.5-.1.8-.3.6-.1.6.1h.6l.2.8c0 .2.2.3.4.4.2 0 1.4.3 1.9 0zm5.6 9.6l-.1.7-.2.7c0 .2-.3.6-.5.7l-.5.5c-.2 0-.3-.4-.2-.6l.3-.7v-.5c.1-.2.7-.4.7-.4l.4-.8v.4zM3 18l.3.2.5.4c.3 0 .4.2.7.4.3.1.2 0 .6.5l.4.6.3.7.6.3.5.2c.2 0 .6.5.8.5.3 0 .3.5.3.5l-.3.7-.2.8.2.5s-.3.3-.5.3c-.1 0-.2.1-.4 0A13 13 0 013 18.1z"/></g></svg>