<?xml version="1.0" encoding="UTF-8"?>
<svg width="26px" height="26px" viewBox="0 0 26 26" version="1.1" xmlns="http://www.w3.org/2000/svg" xmlns:xlink="http://www.w3.org/1999/xlink">
    <!-- Generator: Sketch 59 (86127) - https://sketch.com -->
    <title>iconfinder_Artboard_26_3741736</title>
    <desc>Created with Sketch.</desc>
    <g id="Page-1" stroke="none" stroke-width="1" fill="none" fill-rule="evenodd">
        <g id="Artboard" transform="translate(-166.000000, -183.000000)" fill="#000000" fill-rule="nonzero">
            <g id="iconfinder_Artboard_26_3741736" transform="translate(166.000000, 183.000000)">
                <path d="M25,25.5 L1,25.5 C0.723857625,25.5 0.5,25.2761424 0.5,25 L0.5,1 C0.5,0.723857625 0.723857625,0.5 1,0.5 L25,0.5 C25.2761424,0.5 25.5,0.723857625 25.5,1 L25.5,25 C25.5,25.2761424 25.2761424,25.5 25,25.5 Z M1.5,24.5 L24.5,24.5 L24.5,1.5 L1.5,1.5 L1.5,24.5 Z" id="Shape"></path>
                <path d="M19,13.5 L7,13.5 C6.72385763,13.5 6.5,13.2761424 6.5,13 C6.5,12.7238576 6.72385763,12.5 7,12.5 L19,12.5 C19.2761424,12.5 19.5,12.7238576 19.5,13 C19.5,13.2761424 19.2761424,13.5 19,13.5 Z" id="Path"></path>
                <path d="M13,19.5 C12.7238576,19.5 12.5,19.2761424 12.5,19 L12.5,7 C12.5,6.72385763 12.7238576,6.5 13,6.5 C13.2761424,6.5 13.5,6.72385763 13.5,7 L13.5,19 C13.5,19.2761424 13.2761424,19.5 13,19.5 Z" id="Path"></path>
            </g>
        </g>
    </g>
</svg>